<?xml version="1.0" encoding="UTF-8"?>
<svg viewBox="-34.6 -34.6 79.2 69.2" height="69.2mm" width="79.2mm" xmlns:svgjs="http://svgjs.com/svgjs" xmlns:xlink="http://www.w3.org/1999/xlink" version="1.1" xmlns="http://www.w3.org/2000/svg" id="SvgjsSvg2149">
  <defs id="SvgjsDefs2150">
  </defs>
  <defs id="SvgjsDefs2150">
  </defs>
  <g id="SvgjsG2151">
    <g transform="matrix(1,0,0,1,0,0)" id="SvgjsG2152">
      <g fill="none" stroke-width="0.04" stroke="blue" id="SvgjsG2153">
        <circle cy="0" cx="0" r="30" id="SvgjsCircle2154">
        </circle>
        <circle cy="0" cx="0" r="31" id="SvgjsCircle2155">
        </circle>
      </g>
      <g fill="none" stroke-width="0.1" stroke="black" id="SvgjsG2156">
        <circle cy="0" cx="0" r="2" id="SvgjsCircle2157">
        </circle>
        <path d="M30.67599836405369 -2.7409841315803263  L30.45297656360273 -2.6211077860253704 L30.23755013431591 -2.511072438228718 L30.032314593655453 -2.4116049231807932 L29.835503640177894 -2.321250806554843 L29.64727012354351 -2.239577495029886 L29.47054277247792 -2.1672591903944753 L29.303284085484602 -2.102857286499714 L28.972374142083456 -1.9848971378975118 L28.931026986483396 -1.9629330940124632 L28.903309256708418 -1.9403815540180132 L28.889221603509068 -1.9178033205323108 L28.887588572950193 -1.901195093318253 L28.91032503114491 -1.515125933233224 L28.928068341665863 -1.1287950933669806 L28.931428458780754 -1.1124485459341373 L28.94779900639142 -1.091466559113845 L28.977722173362473 -1.0719358505137375 L29.021138692672384 -1.0544140825945902 L29.36256606984011 -0.9716896398925129 L29.535640328291144 -0.9251238298853462 L29.718958869685967 -0.8716747309137662 L29.914698409164718 -0.8101245945642216 L30.11987578860727 -0.7408377937643059 L30.334384213994852 -0.6633681278444153 L30.560132340571908 -0.5764537587967706 L30.794462894447847 -0.4805462344819582 L30.99750970512523 -0.3927992675327232 A31 31 0 0 1 30.99750970512523 0.3927992675327203 L30.794462894447843 0.4805462344819551 L30.560132340571908 0.5764537587967677 L30.334384213994852 0.6633681278444122 L30.11987578860727 0.740837793764303 L29.914698409164718 0.8101245945642187 L29.718958869685967 0.8716747309137634 L29.535640328291144 0.9251238298853434 L29.36256606984011 0.97168963989251 L29.021138692672384 1.0544140825945871 L28.977722173362473 1.0719358505137349 L28.94779900639142 1.0914665591138424 L28.931428458780754 1.1124485459341347 L28.928068341665863 1.128795093366978 L28.91032503114491 1.5151259332332214 L28.887588572950193 1.9011950933182504 L28.889221603509068 1.9178033205323082 L28.903309256708418 1.9403815540180105 L28.931026986483396 1.9629330940124605 L28.972374142083456 1.984897137897509 L29.303284085484602 2.102857286499711 L29.47054277247792 2.1672591903944727 L29.64727012354351 2.2395774950298835 L29.835503640177894 2.32125080655484 L30.032314593655453 2.41160492318079 L30.23755013431591 2.511072438228715 L30.45297656360273 2.6211077860253678 L30.675998364053694 2.740984131580323 L30.868760807445444 2.8494745825549987 A31 31 0 0 1 30.786643399829735 3.630769526646829 L30.575536845214778 3.696811635438495 L30.332464912498956 3.7676995556068307 L30.098868432347277 3.8305406938901805 L29.877437321429888 3.8851637368106493 L29.66614148232764 3.9326241010957705 L29.465040483360188 3.973376706095864 L29.277139227937518 4.0073709998903375 L29.100145635822475 4.035590531250948 L28.75194157468069 4.082172921747454 L28.706931372131987 4.095060441544713 L28.675130612444015 4.111356336219991 L28.65665652956741 4.130512193336507 L28.651606140042762 4.146417964793727 L28.593577460229238 4.528777762914685 L28.530610338712744 4.9103553887104425 L28.530498390891065 4.927043332492863 L28.542148802402615 4.950970440793107 L28.56735741373379 4.976295732790507 L28.606182197534803 5.00246140998038 L28.922949188582106 5.154364868409873 L29.08255978294188 5.2358972654561935 L29.250759681837383 5.326292441276272 L29.429424849828763 5.427194098084334 L29.61571307534968 5.5376255919267505 L29.80942712775124 5.658001169192929 L30.01217160270768 5.789951925441752 L30.221441176217617 5.932483701909213 L30.401807306655805 6.060528992825364 A31 31 0 0 1 30.23847218692639 6.82896031503962 L30.021618815963116 6.872573994509594 L29.772468651368303 6.9176656476438385 L29.53358314956175 6.955745054501508 L29.307655398703208 6.986923012933711 L29.092556101370963 7.012036955021212 L28.88829694754259 7.03154553460344 L28.697871663567348 7.045712574624232 L28.5188979166218 7.055276648247384 L28.16773216806621 7.065206620120047 L28.121621423476824 7.073318693431631 L28.088291486849812 7.086201232949883 L28.067916274625215 7.103321084783435 L28.061230945815304 7.118611813304448 L27.963552671068527 7.492811355717976 L27.861044767190307 7.8657168029059905 L27.85918906751184 7.8823016266525165 L27.86827459298906 7.907315459361695 L27.890697895055453 7.935137034163263 L27.926574934601483 7.96521766802315 L28.22572840785327 8.149400150201537 L28.375942182507032 8.247169754395626 L28.533771795942055 8.354651412937681 L28.70091112232183 8.47367591536183 L28.874635607103986 8.6029748758649 L29.054705799551265 8.742939655334593 L29.2425470092827 8.895360139937655 L29.435771554611755 9.058985739347952 L29.601765243027256 9.205182979203101 A31 31 0 0 1 29.359001944935972 9.952331585169016 L29.138777648536124 9.973038994718278 L28.886278993403657 9.991840347230658 L28.644721749490028 10.004740816712486 L28.416772670407163 10.012132098419434 L28.200226587758912 10.014624464704372 L27.99504718510293 10.0126752787884 L27.804184211835413 10.0068598479804 L27.62519118388355 9.997663677874066 L27.274911193341488 9.970832436273067 L27.228205105678434 9.974080185526217 L27.193711161872805 9.983408226088635 L27.17165805538914 9.998304503959973 L27.163411033155402 10.012812661123313 L27.02715334709399 10.37475213933644 L26.886227758900095 10.73489977780184 L26.882648638798837 10.751199774712907 L26.88906973532334 10.777026275045376 L26.90846205373513 10.80703931365555 L26.940998272673156 10.8407053344661 L27.2192606400746 11.055148898575975 L27.358431821472983 11.168084525674677 L27.504161935174768 11.291475075395738 L27.65794420650696 11.427318366079938 L27.8172015887409 11.574068166774842 L27.98165503452333 11.732088665034668 L28.15253495142764 11.90330892726662 L28.327597460022357 12.086235633311754 L28.47740004482848 12.248983054552308 A31 31 0 0 1 28.157868333870695 12.966663027792034 L27.93668593551054 12.964237292708257 L27.683605217944784 12.956542353046208 L27.442022783637498 12.944122544908955 L27.214549834142147 12.927646169461541 L26.99892949037457 12.907489653057336 L26.79507782736303 12.884104057331957 L26.605868299479 12.85836987077205 L26.428817075591773 12.830514212100338 L26.083260583940408 12.76721572572346 L26.036470874874006 12.765563567897718 L26.00119084675642 12.771234909539885 L25.977701464463227 12.783744406711405 L25.967983104907056 12.797311038111165 L25.79463887525325 13.14302496745988 L25.616839612978502 13.486468944309898 L25.61157628604327 13.502305528208355 L25.615262602737825 13.528661735621931 L25.631411471196387 13.560537408909063 L25.66025039590309 13.597419964701214 L25.914572956726794 13.839775122178986 L26.041176756282958 13.966639425818508 L26.173210720629797 14.1045869740347 L26.31195106616869 14.255760725459176 L26.4549964886479 14.41835354482013 L26.6020314013994 14.592698456223241 L26.754077829348052 14.780842571060925 L26.909060279730085 14.981066200469593 L27.04103049245949 15.158580708291357 A31 31 0 0 1 26.64823122492677 15.838928996833872 L26.428514045248132 15.813396693978254 L26.177624070551282 15.779289769510987 L25.938663273554987 15.741685757771613 L25.714158694883597 15.701522243787142 L25.50182647160447 15.658937683705544 L25.301535989716033 15.614371895651269 L25.116052926397614 15.569000902472634 L24.942883316834283 15.522790947661123 L24.605836313308505 15.423718727971169 L24.55947562068265 15.417184764453413 L24.52379604362398 15.41913727076949 L24.499127740109135 15.4291229305724 L24.488044519611524 15.441599397355963 L24.279512942020027 15.767300063685033 L24.0667880115888 16.090277534839032 L24.05989814393092 16.105477196797665 L24.060809292738405 16.132074347168537 L24.073537780861546 16.16546341858568 L24.0983634460429 16.205158416359996 L24.32595978909206 16.472769873384266 L24.438609109084524 16.612172901705872 L24.55550033233315 16.763166066211554 L24.67767868381973 16.928013987120558 L24.802944910961354 17.104668424193914 L24.93095034540878 17.293427589406953 L25.062497431919418 17.496434210556526 L25.195701803930216 17.71176107134544 L25.308393751315695 17.90209777965341 A31 31 0 0 1 24.846630518181655 18.53766034527742 L24.630785824583864 18.48930121190302 L24.384835395820808 18.429155985232327 L24.151114340633157 18.366779767312604 L23.932037851930254 18.30336915465504 L23.725320105411196 18.238823116247698 L23.53078522907891 18.173565407964446 L23.351060821582653 18.109054702262835 L23.183670108823655 18.044996737246496 L22.858825350925706 17.91123624021458 L22.813401612190418 17.899892058476432 L22.777713399103348 17.89810433739863 L22.752136445462334 17.905456754854495 L22.73980979410637 17.916706362240912 L22.498375584179307 18.21882532089279 L22.253055644444963 18.517797677589424 L22.24461472289628 18.532193886931086 L22.242740721079706 18.558740576313976 L22.25190937288793 18.59327722820757 L22.27244978336111 18.635349761261725 L22.470826315473687 18.925285510708033 L22.56828694637922 19.075699934961474 L22.66875474382666 19.238084403048973 L22.77303248967458 19.414800385124384 L22.879147078480415 19.603580976930242 L22.986720580297103 19.804686311038747 L23.09632706796191 20.020331255477018 L23.206293946626918 20.24840218149933 L23.298472952110608 20.44947572148678 A31 31 0 0 1 22.772804927987636 21.03328920772329 L22.56319756010216 20.96263307661516 L22.32488136163886 20.877108511430645 L22.098960745049755 20.790643494227155 L21.887712594170274 20.704680522838306 L21.688874167300618 20.618880186009132 L21.502226261338613 20.5336455346049 L21.3302296078828 20.450701909171723 L21.17045175960589 20.36949776642026 L20.861368314481435 20.202514500043055 L20.81737920162382 20.186484389313556 L20.78207336003918 20.180976027488114 L20.755867982728404 20.185614647972695 L20.74243295388586 20.19551414290931 L20.47074131535055 20.470741315350548 L20.19551414290931 20.74243295388586 L20.1856146479727 20.7558679827284 L20.180976027488118 20.782073360039178 L20.18648438931356 20.817379201623815 L20.202514500043055 20.861368314481435 L20.369497766420267 21.17045175960589 L20.450701909171727 21.330229607882796 L20.533645534604908 21.502226261338613 L20.618880186009136 21.688874167300614 L20.70468052283831 21.88771259417027 L20.790643494227158 22.09896074504975 L20.87710851143065 22.324881361638855 L20.962633076615163 22.563197560102157 L21.033289207723293 22.772804927987632 A31 31 0 0 1 20.449475721486785 23.298472952110608 L20.248402181499333 23.206293946626918 L20.02033125547702 23.09632706796191 L19.80468631103875 22.986720580297103 L19.603580976930246 22.879147078480415 L19.414800385124387 22.77303248967458 L19.238084403048976 22.66875474382666 L19.075699934961477 22.56828694637922 L18.925285510708036 22.470826315473683 L18.63534976126173 22.27244978336111 L18.593277228207572 22.25190937288793 L18.55874057631398 22.242740721079706 L18.53219388693109 22.24461472289628 L18.517797677589428 22.253055644444963 L18.218825320892794 22.498375584179307 L17.916706362240916 22.73980979410637 L17.905456754854498 22.752136445462334 L17.898104337398635 22.777713399103348 L17.899892058476436 22.813401612190418 L17.911236240214585 22.858825350925706 L18.0449967372465 23.18367010882366 L18.10905470226284 23.351060821582653 L18.17356540796445 23.53078522907891 L18.2388231162477 23.725320105411196 L18.303369154655044 23.932037851930254 L18.366779767312607 24.151114340633157 L18.42915598523233 24.384835395820808 L18.489301211903022 24.630785824583864 L18.537660345277423 24.846630518181655 A31 31 0 0 1 17.902097779653413 25.30839375131569 L17.711761071345443 25.195701803930213 L17.496434210556526 25.06249743191941 L17.293427589406956 24.930950345408778 L17.104668424193918 24.80294491096135 L16.92801398712056 24.677678683819728 L16.763166066211554 24.555500332333146 L16.612172901705875 24.43860910908452 L16.472769873384266 24.325959789092057 L16.20515841636 24.098363446042896 L16.165463418585684 24.073537780861543 L16.13207434716854 24.060809292738405 L16.10547719679767 24.059898143930916 L16.090277534839036 24.066788011588798 L15.767300063685036 24.279512942020023 L15.441599397355967 24.48804451961152 L15.429122930572403 24.49912774010913 L15.419137270769493 24.52379604362398 L15.417184764453417 24.559475620682647 L15.423718727971172 24.6058363133085 L15.522790947661127 24.94288331683428 L15.569000902472638 25.11605292639761 L15.614371895651272 25.30153598971603 L15.658937683705547 25.501826471604467 L15.701522243787146 25.714158694883594 L15.741685757771616 25.938663273554983 L15.779289769510987 26.177624070551282 L15.813396693978257 26.42851404524813 L15.838928996833875 26.648231224926768 A31 31 0 0 1 15.15858070829136 27.04103049245949 L14.981066200469598 26.909060279730085 L14.78084257106093 26.754077829348052 L14.592698456223246 26.6020314013994 L14.418353544820135 26.4549964886479 L14.255760725459181 26.31195106616869 L14.104586974034705 26.173210720629797 L13.966639425818514 26.041176756282958 L13.839775122178992 25.914572956726794 L13.597419964701219 25.66025039590309 L13.560537408909068 25.631411471196387 L13.528661735621936 25.615262602737825 L13.50230552820836 25.61157628604327 L13.486468944309904 25.616839612978502 L13.143024967459885 25.79463887525325 L12.79731103811117 25.967983104907056 L12.78374440671141 25.977701464463227 L12.77123490953989 26.00119084675642 L12.765563567897724 26.036470874874006 L12.767215725723466 26.083260583940408 L12.830514212100343 26.428817075591773 L12.858369870772055 26.605868299479 L12.884104057331962 26.79507782736303 L12.907489653057342 26.99892949037457 L12.927646169461546 27.214549834142147 L12.94412254490896 27.442022783637498 L12.956542353046213 27.683605217944784 L12.964237292708262 27.93668593551054 L12.966663027792038 28.157868333870695 A31 31 0 0 1 12.248983054552314 28.47740004482848 L12.086235633311759 28.327597460022357 L11.903308927266623 28.15253495142764 L11.732088665034674 27.98165503452333 L11.574068166774845 27.8172015887409 L11.427318366079941 27.65794420650696 L11.291475075395743 27.504161935174768 L11.168084525674683 27.358431821472983 L11.05514889857598 27.2192606400746 L10.840705334466106 26.940998272673156 L10.807039313655553 26.90846205373513 L10.777026275045381 26.88906973532334 L10.75119977471291 26.882648638798837 L10.734899777801845 26.886227758900095 L10.374752139336444 27.02715334709399 L10.012812661123318 27.163411033155402 L9.998304503959977 27.17165805538914 L9.98340822608864 27.193711161872805 L9.97408018552622 27.228205105678434 L9.970832436273072 27.274911193341488 L9.99766367787407 27.62519118388355 L10.006859847980405 27.804184211835413 L10.012675278788405 27.99504718510293 L10.014624464704376 28.200226587758912 L10.012132098419437 28.416772670407163 L10.004740816712491 28.644721749490028 L9.991840347230662 28.886278993403657 L9.973038994718284 29.138777648536124 L9.952331585169022 29.359001944935972 A31 31 0 0 1 9.205182979203107 29.601765243027252 L9.058985739347957 29.43577155461175 L8.89536013993766 29.242547009282696 L8.742939655334599 29.05470579955126 L8.602974875864906 28.874635607103983 L8.473675915361834 28.700911122321827 L8.354651412937686 28.53377179594205 L8.247169754395632 28.37594218250703 L8.149400150201542 28.225728407853268 L7.965217668023154 27.92657493460148 L7.935137034163269 27.89069789505545 L7.907315459361699 27.868274592989057 L7.882301626652521 27.859189067511835 L7.865716802905996 27.861044767190304 L7.49281135571798 27.963552671068523 L7.118611813304454 28.0612309458153 L7.103321084783439 28.06791627462521 L7.086201232949888 28.08829148684981 L7.073318693431636 28.12162142347682 L7.065206620120051 28.167732168066205 L7.055276648247389 28.518897916621796 L7.045712574624236 28.69787166356735 L7.031545534603446 28.888296947542585 L7.012036955021217 29.09255610137096 L6.986923012933716 29.307655398703204 L6.955745054501513 29.533583149561746 L6.917665647643844 29.7724686513683 L6.872573994509599 30.021618815963112 L6.828960315039625 30.238472186926387 A31 31 0 0 1 6.060528992825368 30.4018073066558 L5.932483701909217 30.22144117621761 L5.789951925441756 30.012171602707678 L5.658001169192934 29.809427127751235 L5.537625591926756 29.615713075349678 L5.427194098084339 29.42942484982876 L5.326292441276277 29.250759681837376 L5.235897265456198 29.082559782941875 L5.1543648684098775 28.922949188582102 L5.002461409980384 28.6061821975348 L4.976295732790511 28.567357413733788 L4.95097044079311 28.54214880240261 L4.927043332492867 28.53049839089106 L4.910355388710448 28.53061033871274 L4.52877776291469 28.593577460229234 L4.1464179647937325 28.65160614004276 L4.130512193336513 28.656656529567407 L4.1113563362199965 28.67513061244401 L4.095060441544717 28.706931372131983 L4.082172921747459 28.751941574680686 L4.035590531250953 29.10014563582247 L4.007370999890342 29.277139227937514 L3.9733767060958693 29.465040483360188 L3.9326241010957763 29.666141482327635 L3.8851637368106546 29.877437321429884 L3.830540693890186 30.098868432347274 L3.7676995556068364 30.332464912498953 L3.6968116354384994 30.575536845214778 L3.630769526646835 30.78664339982973 A31 31 0 0 1 2.849474582555003 30.868760807445444 L2.740984131580328 30.67599836405369 L2.621107786025372 30.45297656360273 L2.51107243822872 30.23755013431591 L2.411604923180795 30.032314593655453 L2.3212508065548447 29.835503640177894 L2.239577495029888 29.64727012354351 L2.167259190394477 29.47054277247792 L2.1028572864997157 29.303284085484602 L1.9848971378975135 28.972374142083456 L1.962933094012465 28.931026986483396 L1.940381554018015 28.903309256708418 L1.9178033205323128 28.889221603509068 L1.9011950933182553 28.887588572950193 L1.515125933233226 28.91032503114491 L1.1287950933669824 28.928068341665863 L1.1124485459341393 28.931428458780754 L1.0914665591138468 28.94779900639142 L1.0719358505137393 28.977722173362473 L1.054414082594592 29.021138692672384 L0.9716896398925147 29.36256606984011 L0.925123829885348 29.535640328291144 L0.871674730913768 29.718958869685967 L0.8101245945642236 29.914698409164718 L0.7408377937643079 30.11987578860727 L0.6633681278444171 30.334384213994852 L0.5764537587967726 30.560132340571908 L0.48054623448196 30.794462894447847 L0.3927992675327252 30.99750970512523 A31 31 0 0 1 -0.3927992675327183 30.99750970512523 L-0.4805462344819533 30.794462894447843 L-0.5764537587967657 30.560132340571908 L-0.6633681278444105 30.334384213994852 L-0.7408377937643013 30.11987578860727 L-0.8101245945642169 29.914698409164718 L-0.8716747309137614 29.718958869685967 L-0.9251238298853414 29.535640328291144 L-0.971689639892508 29.36256606984011 L-1.0544140825945854 29.021138692672384 L-1.0719358505137326 28.977722173362473 L-1.0914665591138404 28.94779900639142 L-1.112448545934133 28.931428458780754 L-1.1287950933669761 28.928068341665863 L-1.5151259332332196 28.91032503114491 L-1.9011950933182487 28.887588572950193 L-1.9178033205323064 28.889221603509068 L-1.9403815540180085 28.903309256708418 L-1.9629330940124587 28.931026986483396 L-1.9848971378975073 28.972374142083456 L-2.102857286499709 29.303284085484602 L-2.1672591903944705 29.47054277247792 L-2.2395774950298817 29.64727012354351 L-2.321250806554838 29.835503640177894 L-2.4116049231807883 30.032314593655453 L-2.5110724382287133 30.23755013431591 L-2.6211077860253655 30.45297656360273 L-2.7409841315803214 30.675998364053694 L-2.8494745825549965 30.868760807445444 A31 31 0 0 1 -3.6307695266468203 30.786643399829735 L-3.696811635438486 30.575536845214778 L-3.7676995556068227 30.332464912498953 L-3.8305406938901725 30.098868432347277 L-3.8851637368106404 29.877437321429888 L-3.9326241010957625 29.66614148232764 L-3.973376706095856 29.465040483360188 L-4.0073709998903295 29.277139227937518 L-4.03559053125094 29.100145635822475 L-4.082172921747446 28.75194157468069 L-4.095060441544705 28.706931372131987 L-4.111356336219984 28.675130612444015 L-4.1305121933365 28.65665652956741 L-4.146417964793719 28.651606140042762 L-4.528777762914677 28.593577460229238 L-4.9103553887104345 28.530610338712744 L-4.927043332492854 28.530498390891065 L-4.950970440793098 28.542148802402615 L-4.976295732790499 28.56735741373379 L-5.002461409980372 28.606182197534803 L-5.154364868409865 28.922949188582106 L-5.2358972654561855 29.08255978294188 L-5.326292441276264 29.250759681837383 L-5.427194098084326 29.429424849828763 L-5.537625591926742 29.61571307534968 L-5.658001169192921 29.80942712775124 L-5.789951925441743 30.012171602707685 L-5.932483701909204 30.221441176217617 L-6.060528992825355 30.401807306655805 A31 31 0 0 1 -6.828960315039618 30.23847218692639 L-6.872573994509592 30.021618815963116 L-6.917665647643837 29.772468651368303 L-6.955745054501506 29.53358314956175 L-6.986923012933709 29.307655398703208 L-7.01203695502121 29.092556101370963 L-7.031545534603438 28.88829694754259 L-7.04571257462423 28.697871663567348 L-7.055276648247383 28.5188979166218 L-7.065206620120045 28.16773216806621 L-7.073318693431629 28.121621423476824 L-7.086201232949882 28.088291486849812 L-7.103321084783433 28.067916274625215 L-7.1186118133044465 28.061230945815304 L-7.492811355717974 27.963552671068527 L-7.865716802905989 27.861044767190307 L-7.882301626652515 27.85918906751184 L-7.907315459361693 27.86827459298906 L-7.935137034163262 27.890697895055453 L-7.965217668023148 27.926574934601483 L-8.149400150201537 28.22572840785327 L-8.247169754395625 28.375942182507032 L-8.35465141293768 28.533771795942055 L-8.473675915361827 28.70091112232183 L-8.602974875864899 28.874635607103986 L-8.742939655334592 29.054705799551265 L-8.895360139937653 29.2425470092827 L-9.05898573934795 29.435771554611755 L-9.2051829792031 29.601765243027256 A31 31 0 0 1 -9.952331585169015 29.359001944935976 L-9.973038994718276 29.138777648536127 L-9.991840347230657 28.88627899340366 L-10.004740816712484 28.64472174949003 L-10.012132098419432 28.416772670407163 L-10.01462446470437 28.200226587758916 L-10.012675278788398 27.995047185102933 L-10.006859847980397 27.804184211835416 L-9.997663677874064 27.625191183883555 L-9.970832436273065 27.274911193341488 L-9.974080185526216 27.228205105678438 L-9.983408226088633 27.19371116187281 L-9.998304503959972 27.171658055389145 L-10.012812661123313 27.163411033155406 L-10.374752139336438 27.027153347093993 L-10.73489977780184 26.886227758900098 L-10.751199774712905 26.88264863879884 L-10.777026275045374 26.889069735323343 L-10.807039313655547 26.908462053735132 L-10.840705334466099 26.940998272673163 L-11.055148898575974 27.219260640074605 L-11.168084525674676 27.358431821472987 L-11.291475075395736 27.50416193517477 L-11.427318366079936 27.657944206506965 L-11.57406816677484 27.8172015887409 L-11.732088665034667 27.981655034523335 L-11.903308927266618 28.152534951427644 L-12.086235633311752 28.32759746002236 L-12.248983054552307 28.477400044828485 A31 31 0 0 1 -12.966663027792027 28.157868333870702 L-12.964237292708248 27.936685935510546 L-12.956542353046201 27.68360521794479 L-12.944122544908948 27.442022783637505 L-12.927646169461532 27.214549834142154 L-12.907489653057329 26.99892949037458 L-12.88410405733195 26.795077827363038 L-12.858369870772044 26.605868299479006 L-12.830514212100331 26.428817075591777 L-12.767215725723453 26.083260583940415 L-12.765563567897713 26.036470874874013 L-12.771234909539878 26.001190846756423 L-12.783744406711397 25.97770146446323 L-12.79731103811116 25.967983104907056 L-13.143024967459873 25.794638875253252 L-13.486468944309893 25.61683961297851 L-13.502305528208348 25.611576286043274 L-13.528661735621927 25.61526260273783 L-13.560537408909058 25.631411471196394 L-13.597419964701206 25.6602503959031 L-13.83977512217898 25.914572956726797 L-13.966639425818503 26.041176756282965 L-14.104586974034692 26.173210720629804 L-14.255760725459169 26.311951066168696 L-14.418353544820125 26.454996488647907 L-14.592698456223234 26.602031401399408 L-14.780842571060917 26.75407782934806 L-14.981066200469588 26.90906027973009 L-15.15858070829135 27.041030492459498 A31 31 0 0 1 -15.838928996833868 26.64823122492677 L-15.81339669397825 26.428514045248132 L-15.779289769510983 26.177624070551282 L-15.74168575777161 25.938663273554987 L-15.701522243787139 25.714158694883597 L-15.65893768370554 25.50182647160447 L-15.614371895651269 25.301535989716033 L-15.56900090247263 25.116052926397614 L-15.52279094766112 24.942883316834283 L-15.423718727971165 24.605836313308505 L-15.41718476445341 24.55947562068265 L-15.419137270769488 24.52379604362398 L-15.429122930572397 24.499127740109135 L-15.44159939735596 24.488044519611524 L-15.767300063685031 24.279512942020027 L-16.09027753483903 24.0667880115888 L-16.105477196797665 24.05989814393092 L-16.132074347168533 24.060809292738405 L-16.165463418585677 24.073537780861546 L-16.205158416359993 24.0983634460429 L-16.472769873384262 24.32595978909206 L-16.61217290170587 24.438609109084524 L-16.763166066211554 24.55550033233315 L-16.928013987120554 24.67767868381973 L-17.10466842419391 24.802944910961354 L-17.29342758940695 24.93095034540878 L-17.496434210556522 25.062497431919418 L-17.711761071345435 25.195701803930216 L-17.902097779653406 25.308393751315695 A31 31 0 0 1 -18.537660345277413 24.846630518181662 L-18.489301211903012 24.63078582458387 L-18.42915598523232 24.384835395820815 L-18.366779767312597 24.15111434063316 L-18.303369154655034 23.932037851930257 L-18.23882311624769 23.725320105411203 L-18.17356540796444 23.530785229078916 L-18.109054702262828 23.351060821582657 L-18.044996737246485 23.18367010882366 L-17.911236240214578 22.85882535092571 L-17.899892058476425 22.813401612190425 L-17.898104337398625 22.777713399103355 L-17.90545675485449 22.75213644546234 L-17.916706362240905 22.739809794106378 L-18.218825320892787 22.498375584179314 L-18.517797677589417 22.25305564444497 L-18.532193886931083 22.244614722896287 L-18.55874057631397 22.242740721079713 L-18.593277228207562 22.251909372887937 L-18.635349761261722 22.272449783361115 L-18.92528551070803 22.47082631547369 L-19.075699934961467 22.568286946379224 L-19.238084403048965 22.668754743826668 L-19.414800385124376 22.773032489674588 L-19.603580976930235 22.87914707848042 L-19.80468631103874 22.986720580297106 L-20.02033125547701 23.096327067961916 L-20.248402181499323 23.206293946626925 L-20.449475721486774 23.298472952110615 A31 31 0 0 1 -21.033289207723286 22.77280492798764 L-20.962633076615155 22.563197560102164 L-20.87710851143064 22.324881361638862 L-20.79064349422715 22.09896074504976 L-20.704680522838302 21.887712594170278 L-20.61888018600913 21.68887416730062 L-20.533645534604897 21.502226261338617 L-20.45070190917172 21.330229607882803 L-20.369497766420256 21.17045175960589 L-20.20251450004305 20.86136831448144 L-20.186484389313556 20.817379201623822 L-20.18097602748811 20.78207336003918 L-20.18561464797269 20.755867982728407 L-20.195514142909307 20.742432953885864 L-20.470741315350544 20.470741315350555 L-20.742432953885857 20.195514142909314 L-20.755867982728397 20.185614647972702 L-20.782073360039174 20.180976027488118 L-20.817379201623815 20.186484389313563 L-20.86136831448143 20.20251450004306 L-21.170451759605886 20.369497766420267 L-21.330229607882792 20.45070190917173 L-21.50222626133861 20.53364553460491 L-21.68887416730061 20.61888018600914 L-21.887712594170267 20.704680522838313 L-22.098960745049748 20.79064349422716 L-22.32488136163885 20.877108511430652 L-22.563197560102154 20.962633076615166 L-22.77280492798763 21.033289207723296 A31 31 0 0 1 -23.298472952110604 20.449475721486785 L-23.206293946626914 20.248402181499333 L-23.096327067961905 20.02033125547702 L-22.9867205802971 19.80468631103875 L-22.87914707848041 19.603580976930246 L-22.773032489674577 19.414800385124387 L-22.668754743826657 19.238084403048976 L-22.568286946379217 19.075699934961477 L-22.47082631547368 18.925285510708036 L-22.272449783361107 18.63534976126173 L-22.251909372887926 18.593277228207572 L-22.242740721079702 18.55874057631398 L-22.244614722896277 18.53219388693109 L-22.25305564444496 18.517797677589428 L-22.498375584179303 18.218825320892794 L-22.739809794106367 17.916706362240916 L-22.75213644546233 17.905456754854498 L-22.777713399103344 17.898104337398635 L-22.813401612190415 17.899892058476436 L-22.858825350925702 17.911236240214585 L-23.183670108823655 18.0449967372465 L-23.35106082158265 18.10905470226284 L-23.530785229078905 18.17356540796445 L-23.725320105411193 18.2388231162477 L-23.93203785193025 18.303369154655044 L-24.151114340633153 18.366779767312607 L-24.384835395820804 18.42915598523233 L-24.63078582458386 18.489301211903022 L-24.84663051818165 18.537660345277423 A31 31 0 0 1 -25.308393751315688 17.90209777965342 L-25.19570180393021 17.71176107134545 L-25.062497431919407 17.496434210556533 L-24.930950345408778 17.293427589406964 L-24.802944910961347 17.10466842419392 L-24.677678683819725 16.92801398712057 L-24.555500332333143 16.76316606621156 L-24.438609109084517 16.612172901705883 L-24.325959789092053 16.472769873384273 L-24.098363446042892 16.205158416360007 L-24.07353778086154 16.165463418585688 L-24.0608092927384 16.132074347168547 L-24.05989814393091 16.105477196797676 L-24.066788011588798 16.090277534839043 L-24.27951294202002 15.767300063685044 L-24.48804451961152 15.441599397355974 L-24.49912774010913 15.42912293057241 L-24.523796043623978 15.4191372707695 L-24.559475620682644 15.417184764453422 L-24.605836313308497 15.42371872797118 L-24.942883316834276 15.522790947661134 L-25.116052926397607 15.569000902472645 L-25.301535989716026 15.61437189565128 L-25.501826471604463 15.658937683705554 L-25.71415869488359 15.70152224378715 L-25.938663273554983 15.741685757771624 L-26.17762407055128 15.779289769510994 L-26.428514045248125 15.813396693978264 L-26.648231224926764 15.838928996833882 A31 31 0 0 1 -27.04103049245949 15.158580708291362 L-26.909060279730085 14.9810662004696 L-26.754077829348052 14.780842571060932 L-26.6020314013994 14.592698456223246 L-26.4549964886479 14.418353544820137 L-26.31195106616869 14.255760725459183 L-26.173210720629797 14.104586974034707 L-26.041176756282958 13.966639425818515 L-25.914572956726794 13.839775122178994 L-25.66025039590309 13.59741996470122 L-25.631411471196387 13.56053740890907 L-25.615262602737825 13.528661735621938 L-25.61157628604327 13.502305528208362 L-25.616839612978502 13.486468944309905 L-25.79463887525325 13.143024967459887 L-25.967983104907056 12.797311038111172 L-25.977701464463227 12.783744406711412 L-26.00119084675642 12.771234909539892 L-26.036470874874006 12.765563567897726 L-26.083260583940408 12.767215725723467 L-26.428817075591773 12.830514212100345 L-26.605868299479 12.858369870772057 L-26.79507782736303 12.884104057331964 L-26.99892949037457 12.907489653057343 L-27.214549834142147 12.927646169461548 L-27.442022783637498 12.94412254490896 L-27.683605217944784 12.956542353046215 L-27.93668593551054 12.964237292708264 L-28.157868333870695 12.96666302779204 A31 31 0 0 1 -28.47740004482848 12.248983054552316 L-28.327597460022357 12.08623563331176 L-28.152534951427636 11.903308927266625 L-27.98165503452333 11.732088665034675 L-27.8172015887409 11.574068166774847 L-27.65794420650696 11.427318366079943 L-27.504161935174768 11.291475075395745 L-27.358431821472983 11.168084525674685 L-27.2192606400746 11.055148898575982 L-26.940998272673156 10.840705334466108 L-26.90846205373513 10.807039313655554 L-26.88906973532334 10.777026275045383 L-26.882648638798837 10.751199774712912 L-26.886227758900095 10.734899777801846 L-27.02715334709399 10.374752139336445 L-27.163411033155402 10.01281266112332 L-27.17165805538914 9.998304503959979 L-27.193711161872805 9.983408226088642 L-27.228205105678434 9.974080185526223 L-27.274911193341488 9.970832436273074 L-27.62519118388355 9.997663677874073 L-27.804184211835413 10.006859847980406 L-27.99504718510293 10.012675278788407 L-28.200226587758912 10.014624464704378 L-28.416772670407163 10.012132098419439 L-28.644721749490028 10.004740816712493 L-28.88627899340366 9.991840347230664 L-29.138777648536124 9.973038994718285 L-29.359001944935972 9.952331585169023 A31 31 0 0 1 -29.601765243027252 9.205182979203114 L-29.43577155461175 9.058985739347964 L-29.242547009282692 8.895360139937667 L-29.054705799551257 8.742939655334606 L-28.874635607103983 8.602974875864913 L-28.700911122321827 8.473675915361843 L-28.53377179594205 8.354651412937693 L-28.37594218250703 8.24716975439564 L-28.225728407853268 8.14940015020155 L-27.92657493460148 7.965217668023162 L-27.89069789505545 7.935137034163277 L-27.868274592989057 7.907315459361707 L-27.859189067511835 7.882301626652529 L-27.861044767190304 7.865716802906004 L-27.963552671068523 7.492811355717988 L-28.0612309458153 7.118611813304462 L-28.06791627462521 7.103321084783447 L-28.08829148684981 7.086201232949896 L-28.12162142347682 7.073318693431644 L-28.167732168066205 7.065206620120059 L-28.518897916621796 7.055276648247397 L-28.69787166356735 7.045712574624245 L-28.888296947542585 7.031545534603454 L-29.09255610137096 7.012036955021225 L-29.307655398703204 6.986923012933724 L-29.53358314956175 6.955745054501521 L-29.772468651368303 6.917665647643852 L-30.021618815963112 6.872573994509607 L-30.238472186926387 6.828960315039632 A31 31 0 0 1 -30.4018073066558 6.06052899282537 L-30.22144117621761 5.932483701909219 L-30.012171602707678 5.789951925441758 L-29.809427127751235 5.658001169192936 L-29.615713075349678 5.537625591926757 L-29.42942484982876 5.427194098084341 L-29.250759681837376 5.326292441276278 L-29.082559782941875 5.2358972654562 L-28.922949188582102 5.154364868409879 L-28.6061821975348 5.002461409980386 L-28.567357413733788 4.976295732790513 L-28.54214880240261 4.950970440793112 L-28.53049839089106 4.927043332492868 L-28.53061033871274 4.910355388710449 L-28.593577460229234 4.528777762914691 L-28.65160614004276 4.146417964793733 L-28.656656529567407 4.130512193336514 L-28.67513061244401 4.111356336219998 L-28.706931372131983 4.095060441544719 L-28.751941574680686 4.0821729217474605 L-29.10014563582247 4.035590531250954 L-29.277139227937514 4.007370999890344 L-29.465040483360188 3.9733767060958702 L-29.666141482327635 3.932624101095778 L-29.877437321429884 3.8851637368106555 L-30.098868432347274 3.8305406938901876 L-30.332464912498953 3.7676995556068382 L-30.575536845214778 3.696811635438501 L-30.78664339982973 3.630769526646836 A31 31 0 0 1 -30.868760807445444 2.8494745825550054 L-30.67599836405369 2.74098413158033 L-30.45297656360273 2.621107786025374 L-30.23755013431591 2.5110724382287217 L-30.032314593655453 2.4116049231807968 L-29.835503640177894 2.3212508065548465 L-29.647270123543507 2.2395774950298897 L-29.47054277247792 2.167259190394479 L-29.303284085484602 2.1028572864997175 L-28.972374142083456 1.9848971378975153 L-28.931026986483396 1.9629330940124672 L-28.903309256708418 1.940381554018017 L-28.889221603509068 1.9178033205323146 L-28.887588572950193 1.901195093318257 L-28.91032503114491 1.5151259332332279 L-28.928068341665863 1.1287950933669841 L-28.931428458780754 1.112448545934141 L-28.94779900639142 1.0914665591138488 L-28.977722173362473 1.071935850513741 L-29.021138692672384 1.0544140825945938 L-29.36256606984011 0.9716896398925164 L-29.535640328291144 0.9251238298853498 L-29.71895886968597 0.8716747309137698 L-29.914698409164718 0.8101245945642254 L-30.11987578860727 0.7408377937643097 L-30.334384213994852 0.6633681278444191 L-30.560132340571908 0.5764537587967744 L-30.794462894447847 0.480546234481962 L-30.99750970512523 0.3927992675327272 A31 31 0 0 1 -30.997509705125232 -0.3927992675327092 L-30.794462894447847 -0.48054623448194445 L-30.56013234057191 -0.5764537587967569 L-30.334384213994856 -0.6633681278444017 L-30.119875788607274 -0.7408377937642925 L-29.91469840916472 -0.8101245945642082 L-29.71895886968597 -0.8716747309137528 L-29.535640328291148 -0.9251238298853329 L-29.36256606984011 -0.9716896398924998 L-29.021138692672388 -1.0544140825945771 L-28.977722173362476 -1.0719358505137244 L-28.947799006391424 -1.0914665591138322 L-28.931428458780758 -1.1124485459341247 L-28.928068341665867 -1.1287950933669677 L-28.910325031144914 -1.5151259332332114 L-28.887588572950197 -1.9011950933182407 L-28.88922160350907 -1.9178033205322982 L-28.90330925670842 -1.9403815540180003 L-28.9310269864834 -1.9629330940124505 L-28.97237414208346 -1.984897137897499 L-29.303284085484602 -2.1028572864997006 L-29.470542772477923 -2.167259190394462 L-29.647270123543514 -2.2395774950298732 L-29.835503640177897 -2.3212508065548296 L-30.032314593655457 -2.41160492318078 L-30.237550134315914 -2.5110724382287044 L-30.452976563602732 -2.621107786025357 L-30.675998364053697 -2.7409841315803125 L-30.868760807445447 -2.849474582554988 A31 31 0 0 1 -30.786643399829735 -3.6307695266468185 L-30.575536845214778 -3.6968116354384843 L-30.332464912498953 -3.767699555606821 L-30.098868432347277 -3.8305406938901707 L-29.877437321429888 -3.8851637368106395 L-29.66614148232764 -3.9326241010957608 L-29.465040483360188 -3.9733767060958542 L-29.277139227937518 -4.007370999890328 L-29.100145635822475 -4.035590531250938 L-28.75194157468069 -4.0821729217474445 L-28.706931372131987 -4.095060441544703 L-28.675130612444015 -4.111356336219982 L-28.65665652956741 -4.130512193336498 L-28.651606140042762 -4.146417964793717 L-28.593577460229238 -4.528777762914675 L-28.530610338712744 -4.910355388710433 L-28.530498390891065 -4.927043332492852 L-28.542148802402615 -4.950970440793096 L-28.56735741373379 -4.976295732790497 L-28.606182197534803 -5.00246140998037 L-28.922949188582106 -5.154364868409863 L-29.08255978294188 -5.235897265456184 L-29.250759681837383 -5.326292441276262 L-29.429424849828763 -5.427194098084324 L-29.61571307534968 -5.537625591926741 L-29.80942712775124 -5.658001169192919 L-30.012171602707685 -5.789951925441741 L-30.221441176217617 -5.932483701909202 L-30.401807306655805 -6.060528992825353 A31 31 0 0 1 -30.23847218692639 -6.828960315039616 L-30.021618815963116 -6.87257399450959 L-29.772468651368303 -6.917665647643835 L-29.53358314956175 -6.955745054501504 L-29.307655398703208 -6.986923012933707 L-29.092556101370963 -7.012036955021208 L-28.88829694754259 -7.031545534603438 L-28.697871663567348 -7.045712574624228 L-28.5188979166218 -7.055276648247381 L-28.16773216806621 -7.065206620120043 L-28.121621423476824 -7.073318693431628 L-28.088291486849812 -7.08620123294988 L-28.067916274625215 -7.103321084783431 L-28.061230945815304 -7.118611813304446 L-27.963552671068527 -7.492811355717972 L-27.861044767190307 -7.865716802905988 L-27.85918906751184 -7.882301626652513 L-27.86827459298906 -7.9073154593616914 L-27.890697895055453 -7.935137034163261 L-27.926574934601483 -7.965217668023146 L-28.22572840785327 -8.149400150201535 L-28.375942182507032 -8.247169754395623 L-28.533771795942055 -8.354651412937677 L-28.70091112232183 -8.473675915361827 L-28.874635607103986 -8.602974875864897 L-29.054705799551265 -8.74293965533459 L-29.2425470092827 -8.895360139937651 L-29.435771554611755 -9.058985739347948 L-29.601765243027256 -9.205182979203098 A31 31 0 0 1 -29.359001944935972 -9.95233158516901 L-29.138777648536127 -9.97303899471827 L-28.88627899340366 -9.99184034723065 L-28.64472174949003 -10.004740816712477 L-28.416772670407163 -10.012132098419425 L-28.200226587758916 -10.014624464704363 L-27.995047185102933 -10.012675278788393 L-27.804184211835416 -10.00685984798039 L-27.625191183883555 -9.997663677874057 L-27.274911193341488 -9.97083243627306 L-27.228205105678438 -9.974080185526208 L-27.19371116187281 -9.983408226088628 L-27.171658055389145 -9.998304503959965 L-27.163411033155406 -10.012812661123306 L-27.027153347093993 -10.374752139336431 L-26.886227758900098 -10.734899777801832 L-26.88264863879884 -10.751199774712898 L-26.889069735323343 -10.777026275045369 L-26.908462053735132 -10.80703931365554 L-26.940998272673163 -10.840705334466094 L-27.219260640074605 -11.055148898575966 L-27.358431821472987 -11.168084525674669 L-27.50416193517477 -11.29147507539573 L-27.657944206506965 -11.427318366079929 L-27.8172015887409 -11.574068166774833 L-27.981655034523335 -11.73208866503466 L-28.152534951427644 -11.903308927266611 L-28.32759746002236 -12.086235633311745 L-28.47740004482849 -12.248983054552301 A31 31 0 0 1 -28.1578683338707 -12.96666302779203 L-27.936685935510543 -12.964237292708251 L-27.683605217944788 -12.956542353046204 L-27.4420227836375 -12.944122544908952 L-27.21454983414215 -12.927646169461536 L-26.998929490374575 -12.907489653057333 L-26.795077827363034 -12.884104057331953 L-26.605868299479003 -12.858369870772046 L-26.428817075591777 -12.830514212100335 L-26.08326058394041 -12.767215725723457 L-26.03647087487401 -12.765563567897715 L-26.001190846756423 -12.771234909539883 L-25.977701464463227 -12.783744406711401 L-25.967983104907056 -12.797311038111161 L-25.79463887525325 -13.143024967459876 L-25.61683961297851 -13.486468944309895 L-25.61157628604327 -13.502305528208352 L-25.61526260273783 -13.52866173562193 L-25.63141147119639 -13.56053740890906 L-25.660250395903095 -13.59741996470121 L-25.914572956726797 -13.839775122178983 L-26.04117675628296 -13.966639425818505 L-26.1732107206298 -14.104586974034696 L-26.311951066168692 -14.255760725459172 L-26.454996488647904 -14.418353544820128 L-26.602031401399405 -14.592698456223237 L-26.754077829348056 -14.780842571060921 L-26.909060279730088 -14.981066200469591 L-27.041030492459495 -15.158580708291353 A31 31 0 0 1 -26.64823122492678 -15.838928996833863 L-26.42851404524814 -15.813396693978241 L-26.17762407055129 -15.779289769510976 L-25.938663273554994 -15.7416857577716 L-25.714158694883604 -15.701522243787132 L-25.501826471604478 -15.658937683705533 L-25.30153598971604 -15.614371895651262 L-25.11605292639762 -15.569000902472624 L-24.94288331683429 -15.522790947661115 L-24.605836313308508 -15.42371872797116 L-24.559475620682658 -15.417184764453403 L-24.52379604362399 -15.41913727076948 L-24.499127740109138 -15.42912293057239 L-24.48804451961153 -15.441599397355954 L-24.27951294202003 -15.767300063685024 L-24.06678801158881 -16.09027753483902 L-24.059898143930923 -16.105477196797658 L-24.060809292738412 -16.132074347168526 L-24.073537780861553 -16.16546341858567 L-24.09836344604291 -16.20515841635999 L-24.325959789092067 -16.472769873384255 L-24.43860910908453 -16.61217290170586 L-24.555500332333157 -16.763166066211546 L-24.67767868381974 -16.92801398712055 L-24.80294491096136 -17.104668424193903 L-24.93095034540879 -17.293427589406942 L-25.062497431919425 -17.496434210556515 L-25.195701803930223 -17.71176107134543 L-25.308393751315702 -17.902097779653403 A31 31 0 0 1 -24.84663051818167 -18.537660345277406 L-24.630785824583878 -18.48930121190301 L-24.384835395820822 -18.429155985232313 L-24.151114340633164 -18.366779767312586 L-23.932037851930264 -18.303369154655027 L-23.725320105411207 -18.238823116247683 L-23.53078522907892 -18.17356540796443 L-23.351060821582664 -18.10905470226282 L-23.183670108823666 -18.04499673724648 L-22.858825350925716 -17.91123624021457 L-22.813401612190432 -17.899892058476418 L-22.777713399103362 -17.898104337398618 L-22.752136445462348 -17.905456754854484 L-22.73980979410638 -17.9167063622409 L-22.49837558417932 -18.21882532089278 L-22.253055644444974 -18.517797677589414 L-22.244614722896294 -18.532193886931076 L-22.24274072107972 -18.558740576313962 L-22.251909372887944 -18.593277228207555 L-22.27244978336112 -18.635349761261715 L-22.470826315473698 -18.925285510708022 L-22.56828694637923 -19.07569993496146 L-22.66875474382667 -19.238084403048962 L-22.77303248967459 -19.41480038512437 L-22.879147078480425 -19.60358097693023 L-22.986720580297117 -19.804686311038736 L-23.096327067961923 -20.020331255477004 L-23.206293946626932 -20.24840218149932 L-23.29847295211062 -20.449475721486767 A31 31 0 0 1 -22.772804927987636 -21.03328920772329 L-22.56319756010216 -20.96263307661516 L-22.32488136163886 -20.877108511430645 L-22.098960745049755 -20.790643494227155 L-21.887712594170274 -20.704680522838306 L-21.688874167300618 -20.618880186009132 L-21.502226261338613 -20.5336455346049 L-21.3302296078828 -20.450701909171723 L-21.17045175960589 -20.36949776642026 L-20.861368314481435 -20.202514500043055 L-20.81737920162382 -20.186484389313556 L-20.78207336003918 -20.180976027488114 L-20.755867982728404 -20.185614647972695 L-20.74243295388586 -20.19551414290931 L-20.47074131535055 -20.470741315350548 L-20.19551414290931 -20.74243295388586 L-20.1856146479727 -20.7558679827284 L-20.180976027488118 -20.782073360039178 L-20.18648438931356 -20.817379201623815 L-20.202514500043055 -20.861368314481435 L-20.369497766420267 -21.17045175960589 L-20.450701909171727 -21.330229607882796 L-20.533645534604908 -21.502226261338613 L-20.618880186009136 -21.688874167300614 L-20.70468052283831 -21.88771259417027 L-20.790643494227158 -22.09896074504975 L-20.87710851143065 -22.324881361638855 L-20.962633076615163 -22.563197560102157 L-21.033289207723293 -22.772804927987632 A31 31 0 0 1 -20.44947572148679 -23.2984729521106 L-20.24840218149934 -23.206293946626907 L-20.02033125547703 -23.0963270679619 L-19.804686311038758 -22.986720580297096 L-19.603580976930253 -22.879147078480408 L-19.414800385124394 -22.773032489674573 L-19.23808440304898 -22.668754743826653 L-19.075699934961484 -22.568286946379214 L-18.92528551070804 -22.470826315473676 L-18.635349761261736 -22.272449783361104 L-18.59327722820758 -22.251909372887923 L-18.558740576313983 -22.242740721079695 L-18.532193886931097 -22.244614722896273 L-18.517797677589435 -22.253055644444956 L-18.2188253208928 -22.4983755841793 L-17.916706362240923 -22.739809794106364 L-17.905456754854505 -22.752136445462327 L-17.89810433739864 -22.777713399103344 L-17.899892058476443 -22.81340161219041 L-17.911236240214592 -22.8588253509257 L-18.044996737246503 -23.18367010882365 L-18.109054702262846 -23.351060821582646 L-18.173565407964453 -23.5307852290789 L-18.23882311624771 -23.72532010541119 L-18.30336915465505 -23.932037851930247 L-18.366779767312615 -24.15111434063315 L-18.429155985232338 -24.3848353958208 L-18.48930121190303 -24.63078582458386 L-18.53766034527743 -24.846630518181648 A31 31 0 0 1 -17.902097779653428 -25.30839375131568 L-17.711761071345457 -25.195701803930202 L-17.496434210556536 -25.0624974319194 L-17.29342758940697 -24.93095034540877 L-17.104668424193928 -24.802944910961344 L-16.928013987120575 -24.677678683819718 L-16.763166066211568 -24.555500332333136 L-16.61217290170589 -24.43860910908451 L-16.47276987338428 -24.325959789092046 L-16.205158416360014 -24.098363446042885 L-16.165463418585695 -24.073537780861532 L-16.13207434716855 -24.060809292738394 L-16.105477196797683 -24.0598981439309 L-16.090277534839046 -24.06678801158879 L-15.76730006368505 -24.279512942020013 L-15.44159939735598 -24.488044519611513 L-15.429122930572417 -24.499127740109124 L-15.419137270769506 -24.52379604362397 L-15.41718476445343 -24.559475620682637 L-15.423718727971185 -24.60583631330849 L-15.52279094766114 -24.94288331683427 L-15.569000902472652 -25.1160529263976 L-15.614371895651287 -25.30153598971602 L-15.658937683705561 -25.501826471604456 L-15.701522243787156 -25.714158694883587 L-15.74168575777163 -25.938663273554976 L-15.779289769511001 -26.17762407055127 L-15.813396693978271 -26.428514045248118 L-15.83892899683389 -26.648231224926757 A31 31 0 0 1 -15.158580708291383 -27.04103049245948 L-14.981066200469622 -26.909060279730074 L-14.780842571060951 -26.75407782934804 L-14.592698456223268 -26.602031401399387 L-14.418353544820157 -26.45499648864789 L-14.2557607254592 -26.311951066168678 L-14.104586974034726 -26.173210720629786 L-13.966639425818535 -26.041176756282947 L-13.839775122179013 -25.914572956726783 L-13.59741996470124 -25.660250395903077 L-13.56053740890909 -25.631411471196376 L-13.528661735621958 -25.615262602737815 L-13.50230552820838 -25.61157628604326 L-13.486468944309925 -25.61683961297849 L-13.143024967459905 -25.794638875253238 L-12.797311038111191 -25.967983104907045 L-12.78374440671143 -25.977701464463216 L-12.771234909539912 -26.00119084675641 L-12.765563567897745 -26.036470874873995 L-12.767215725723487 -26.0832605839404 L-12.830514212100365 -26.428817075591763 L-12.858369870772076 -26.60586829947899 L-12.884104057331983 -26.795077827363027 L-12.907489653057365 -26.99892949037456 L-12.927646169461568 -27.214549834142137 L-12.944122544908982 -27.44202278363749 L-12.956542353046235 -27.683605217944773 L-12.964237292708285 -27.93668593551053 L-12.96666302779206 -28.157868333870685 A31 31 0 0 1 -12.248983054552324 -28.477400044828478 L-12.08623563331177 -28.327597460022353 L-11.903308927266634 -28.152534951427633 L-11.732088665034683 -27.981655034523328 L-11.574068166774856 -27.817201588740897 L-11.427318366079952 -27.657944206506958 L-11.291475075395754 -27.504161935174764 L-11.168084525674692 -27.35843182147298 L-11.05514889857599 -27.219260640074598 L-10.840705334466117 -26.940998272673152 L-10.807039313655563 -26.908462053735125 L-10.77702627504539 -26.88906973532334 L-10.751199774712921 -26.882648638798834 L-10.734899777801855 -26.88622775890009 L-10.374752139336454 -27.027153347093986 L-10.012812661123329 -27.1634110331554 L-9.998304503959988 -27.171658055389138 L-9.983408226088649 -27.193711161872805 L-9.974080185526232 -27.22820510567843 L-9.970832436273083 -27.274911193341485 L-9.99766367787408 -27.625191183883548 L-10.006859847980413 -27.80418421183541 L-10.012675278788416 -27.995047185102926 L-10.014624464704386 -28.20022658775891 L-10.012132098419448 -28.41677267040716 L-10.0047408167125 -28.644721749490024 L-9.991840347230672 -28.886278993403657 L-9.973038994718294 -29.13877764853612 L-9.952331585169032 -29.35900194493597 A31 31 0 0 1 -9.205182979203123 -29.60176524302725 L-9.058985739347973 -29.435771554611748 L-8.895360139937676 -29.24254700928269 L-8.742939655334615 -29.054705799551254 L-8.602974875864922 -28.87463560710398 L-8.47367591536185 -28.700911122321823 L-8.354651412937702 -28.533771795942048 L-8.247169754395648 -28.375942182507025 L-8.149400150201558 -28.225728407853268 L-7.965217668023171 -27.926574934601476 L-7.935137034163285 -27.890697895055446 L-7.907315459361715 -27.868274592989053 L-7.882301626652537 -27.85918906751183 L-7.865716802906012 -27.8610447671903 L-7.492811355717996 -27.96355267106852 L-7.11861181330447 -28.061230945815296 L-7.103321084783455 -28.067916274625208 L-7.086201232949904 -28.088291486849805 L-7.073318693431652 -28.121621423476817 L-7.065206620120068 -28.167732168066202 L-7.055276648247405 -28.518897916621796 L-7.045712574624254 -28.697871663567348 L-7.031545534603462 -28.88829694754258 L-7.012036955021233 -29.092556101370956 L-6.986923012933733 -29.3076553987032 L-6.95574505450153 -29.533583149561746 L-6.917665647643861 -29.7724686513683 L-6.872573994509617 -30.02161881596311 L-6.828960315039641 -30.238472186926384 A31 31 0 0 1 -6.060528992825393 -30.401807306655797 L-5.932483701909241 -30.22144117621761 L-5.78995192544178 -30.012171602707674 L-5.658001169192956 -29.80942712775123 L-5.537625591926779 -29.61571307534967 L-5.427194098084362 -29.429424849828756 L-5.3262924412762995 -29.250759681837373 L-5.235897265456221 -29.08255978294187 L-5.1543648684099 -28.9229491885821 L-5.002461409980407 -28.606182197534796 L-4.976295732790534 -28.567357413733784 L-4.950970440793133 -28.542148802402608 L-4.9270433324928895 -28.530498390891058 L-4.91035538871047 -28.530610338712737 L-4.528777762914713 -28.59357746022923 L-4.146417964793755 -28.651606140042755 L-4.130512193336536 -28.656656529567403 L-4.11135633622002 -28.675130612444008 L-4.0950604415447405 -28.70693137213198 L-4.082172921747482 -28.751941574680682 L-4.0355905312509766 -29.100145635822468 L-4.007370999890365 -29.27713922793751 L-3.9733767060958924 -29.465040483360184 L-3.9326241010957994 -29.66614148232763 L-3.8851637368106777 -29.877437321429884 L-3.830540693890209 -30.09886843234727 L-3.7676995556068604 -30.33246491249895 L-3.6968116354385234 -30.575536845214778 L-3.630769526646859 -30.786643399829728 A31 31 0 0 1 -2.849474582555014 -30.868760807445444 L-2.7409841315803387 -30.67599836405369 L-2.621107786025383 -30.45297656360273 L-2.5110724382287306 -30.23755013431591 L-2.4116049231808057 -30.032314593655453 L-2.321250806554855 -29.835503640177894 L-2.2395774950298986 -29.647270123543507 L-2.1672591903944873 -29.47054277247792 L-2.102857286499726 -29.303284085484602 L-1.9848971378975238 -28.972374142083456 L-1.9629330940124752 -28.931026986483396 L-1.9403815540180251 -28.903309256708418 L-1.9178033205323228 -28.889221603509068 L-1.901195093318265 -28.887588572950193 L-1.515125933233236 -28.91032503114491 L-1.1287950933669926 -28.928068341665863 L-1.1124485459341493 -28.931428458780754 L-1.091466559113857 -28.94779900639142 L-1.0719358505137495 -28.977722173362473 L-1.0544140825946018 -29.021138692672384 L-0.9716896398925249 -29.36256606984011 L-0.9251238298853582 -29.535640328291144 L-0.8716747309137785 -29.71895886968597 L-0.8101245945642338 -29.914698409164718 L-0.7408377937643184 -30.11987578860727 L-0.6633681278444278 -30.334384213994852 L-0.5764537587967831 -30.560132340571908 L-0.48054623448197087 -30.794462894447847 L-0.39279926753273586 -30.99750970512523 A31 31 0 0 1 0.3927992675327008 -30.997509705125232 L0.480546234481936 -30.794462894447847 L0.5764537587967484 -30.56013234057191 L0.6633681278443933 -30.334384213994856 L0.7408377937642843 -30.119875788607274 L0.8101245945641999 -29.91469840916472 L0.8716747309137446 -29.71895886968597 L0.9251238298853249 -29.535640328291148 L0.9716896398924916 -29.36256606984011 L1.054414082594569 -29.021138692672388 L1.0719358505137164 -28.977722173362476 L1.0914665591138242 -28.947799006391424 L1.1124485459341165 -28.931428458780758 L1.1287950933669595 -28.928068341665867 L1.5151259332332032 -28.910325031144914 L1.9011950933182324 -28.887588572950197 L1.91780332053229 -28.88922160350907 L1.9403815540179923 -28.90330925670842 L1.9629330940124425 -28.9310269864834 L1.984897137897491 -28.97237414208346 L2.1028572864996926 -29.303284085484602 L2.167259190394454 -29.470542772477923 L2.239577495029865 -29.647270123543514 L2.321250806554821 -29.835503640177897 L2.4116049231807715 -30.032314593655457 L2.5110724382286964 -30.237550134315914 L2.6211077860253487 -30.452976563602732 L2.740984131580304 -30.675998364053697 L2.849474582554979 -30.868760807445447 A31 31 0 0 1 3.6307695266467963 -30.78664339982974 L3.696811635438462 -30.57553684521478 L3.7676995556067987 -30.332464912498956 L3.8305406938901485 -30.098868432347277 L3.8851637368106173 -29.87743732142989 L3.9326241010957395 -29.666141482327642 L3.9733767060958325 -29.46504048336019 L4.007370999890306 -29.27713922793752 L4.035590531250917 -29.10014563582248 L4.082172921747424 -28.751941574680693 L4.095060441544682 -28.70693137213199 L4.111356336219961 -28.67513061244402 L4.130512193336477 -28.656656529567414 L4.146417964793697 -28.651606140042766 L4.528777762914655 -28.59357746022924 L4.910355388710412 -28.530610338712748 L4.927043332492833 -28.53049839089107 L4.950970440793077 -28.542148802402618 L4.976295732790476 -28.567357413733795 L5.0024614099803495 -28.606182197534807 L5.154364868409842 -28.92294918858211 L5.235897265456162 -29.082559782941882 L5.326292441276241 -29.250759681837387 L5.4271940980843025 -29.429424849828766 L5.5376255919267185 -29.615713075349685 L5.658001169192897 -29.809427127751245 L5.78995192544172 -30.01217160270769 L5.93248370190918 -30.22144117621762 L6.060528992825331 -30.401807306655808 A31 31 0 0 1 6.828960315039607 -30.238472186926394 L6.872573994509582 -30.02161881596312 L6.917665647643827 -29.772468651368307 L6.955745054501496 -29.533583149561753 L6.986923012933699 -29.30765539870321 L7.0120369550212 -29.092556101370967 L7.031545534603429 -28.888296947542592 L7.04571257462422 -28.69787166356735 L7.055276648247371 -28.518897916621803 L7.065206620120035 -28.167732168066212 L7.07331869343162 -28.121621423476828 L7.086201232949872 -28.088291486849815 L7.103321084783423 -28.06791627462522 L7.118611813304437 -28.061230945815307 L7.492811355717964 -27.96355267106853 L7.865716802905979 -27.86104476719031 L7.882301626652505 -27.859189067511842 L7.9073154593616835 -27.868274592989064 L7.935137034163253 -27.890697895055457 L7.965217668023138 -27.926574934601486 L8.149400150201526 -28.225728407853275 L8.247169754395616 -28.375942182507035 L8.354651412937669 -28.53377179594206 L8.473675915361818 -28.700911122321834 L8.602974875864888 -28.87463560710399 L8.742939655334583 -29.054705799551268 L8.895360139937644 -29.242547009282703 L9.05898573934794 -29.435771554611758 L9.205182979203089 -29.60176524302726 A31 31 0 0 1 9.952331585169 -29.359001944935976 L9.973038994718262 -29.13877764853613 L9.99184034723064 -28.886278993403664 L10.004740816712468 -28.644721749490035 L10.012132098419416 -28.416772670407166 L10.014624464704355 -28.200226587758916 L10.012675278788384 -27.995047185102937 L10.006859847980383 -27.804184211835416 L9.99766367787405 -27.625191183883558 L9.970832436273051 -27.27491119334149 L9.974080185526198 -27.22820510567844 L9.983408226088619 -27.193711161872812 L9.998304503959956 -27.17165805538915 L10.012812661123297 -27.16341103315541 L10.374752139336422 -27.027153347093996 L10.734899777801823 -26.8862277589001 L10.75119977471289 -26.882648638798845 L10.77702627504536 -26.889069735323346 L10.807039313655533 -26.908462053735136 L10.840705334466085 -26.940998272673166 L11.05514889857596 -27.21926064007461 L11.168084525674661 -27.358431821472994 L11.291475075395722 -27.504161935174775 L11.42731836607992 -27.657944206506972 L11.574068166774824 -27.817201588740904 L11.73208866503465 -27.98165503452334 L11.903308927266602 -28.152534951427647 L12.086235633311738 -28.327597460022364 L12.248983054552292 -28.477400044828492 A31 31 0 0 1 12.966663027792002 -28.157868333870713 L12.964237292708226 -27.936685935510557 L12.95654235304618 -27.683605217944802 L12.944122544908927 -27.442022783637515 L12.92764616946151 -27.214549834142165 L12.907489653057308 -26.99892949037459 L12.884104057331928 -26.79507782736305 L12.858369870772023 -26.60586829947901 L12.83051421210031 -26.428817075591787 L12.767215725723434 -26.083260583940422 L12.765563567897692 -26.03647087487402 L12.771234909539857 -26.001190846756433 L12.783744406711378 -25.97770146446324 L12.797311038111136 -25.967983104907066 L13.143024967459853 -25.794638875253263 L13.486468944309873 -25.61683961297852 L13.502305528208328 -25.611576286043285 L13.528661735621906 -25.61526260273784 L13.560537408909036 -25.6314114711964 L13.597419964701187 -25.660250395903105 L13.839775122178958 -25.914572956726808 L13.966639425818482 -26.041176756282976 L14.104586974034671 -26.173210720629815 L14.255760725459147 -26.311951066168707 L14.418353544820103 -26.454996488647918 L14.592698456223212 -26.60203140139942 L14.780842571060896 -26.75407782934807 L14.981066200469566 -26.909060279730102 L15.158580708291328 -27.04103049245951 A31 31 0 0 1 15.838928996833863 -26.64823122492678 L15.813396693978241 -26.42851404524814 L15.779289769510976 -26.17762407055129 L15.7416857577716 -25.938663273554994 L15.701522243787132 -25.714158694883604 L15.658937683705533 -25.501826471604478 L15.614371895651262 -25.30153598971604 L15.569000902472624 -25.11605292639762 L15.522790947661115 -24.94288331683429 L15.42371872797116 -24.605836313308508 L15.417184764453403 -24.559475620682658 L15.41913727076948 -24.52379604362399 L15.42912293057239 -24.499127740109138 L15.441599397355954 -24.48804451961153 L15.767300063685024 -24.27951294202003 L16.09027753483902 -24.06678801158881 L16.105477196797658 -24.059898143930923 L16.132074347168526 -24.060809292738412 L16.16546341858567 -24.073537780861553 L16.20515841635999 -24.09836344604291 L16.472769873384255 -24.325959789092067 L16.61217290170586 -24.43860910908453 L16.763166066211546 -24.555500332333157 L16.92801398712055 -24.67767868381974 L17.104668424193903 -24.80294491096136 L17.293427589406942 -24.93095034540879 L17.496434210556515 -25.062497431919425 L17.71176107134543 -25.195701803930223 L17.902097779653403 -25.308393751315702 A31 31 0 0 1 18.537660345277402 -24.84663051818167 L18.489301211903005 -24.630785824583878 L18.429155985232313 -24.384835395820822 L18.366779767312586 -24.151114340633164 L18.303369154655023 -23.932037851930264 L18.23882311624768 -23.725320105411207 L18.173565407964425 -23.53078522907892 L18.109054702262817 -23.351060821582664 L18.044996737246475 -23.183670108823666 L17.911236240214564 -22.858825350925716 L17.899892058476414 -22.813401612190432 L17.898104337398614 -22.777713399103362 L17.90545675485448 -22.752136445462348 L17.916706362240898 -22.73980979410638 L18.218825320892776 -22.49837558417932 L18.51779767758941 -22.253055644444974 L18.532193886931072 -22.244614722896294 L18.55874057631396 -22.24274072107972 L18.59327722820755 -22.251909372887944 L18.635349761261715 -22.27244978336112 L18.92528551070802 -22.470826315473698 L19.075699934961456 -22.56828694637923 L19.23808440304896 -22.66875474382667 L19.414800385124366 -22.77303248967459 L19.603580976930225 -22.879147078480425 L19.80468631103873 -22.986720580297117 L20.020331255477004 -23.096327067961923 L20.248402181499316 -23.206293946626932 L20.449475721486763 -23.29847295211062 A31 31 0 0 1 21.033289207723264 -22.772804927987657 L20.962633076615138 -22.563197560102182 L20.877108511430624 -22.32488136163888 L20.790643494227133 -22.098960745049776 L20.704680522838288 -21.887712594170296 L20.61888018600911 -21.688874167300636 L20.533645534604883 -21.502226261338635 L20.4507019091717 -21.330229607882817 L20.36949776642024 -21.170451759605907 L20.202514500043034 -20.861368314481453 L20.186484389313538 -20.81737920162384 L20.180976027488093 -20.782073360039195 L20.185614647972677 -20.755867982728425 L20.19551414290929 -20.74243295388588 L20.47074131535053 -20.470741315350573 L20.74243295388584 -20.19551414290933 L20.755867982728383 -20.18561464797272 L20.782073360039156 -20.18097602748814 L20.817379201623798 -20.18648438931358 L20.861368314481414 -20.20251450004308 L21.170451759605868 -20.369497766420285 L21.330229607882778 -20.450701909171745 L21.502226261338595 -20.53364553460493 L21.688874167300593 -20.618880186009154 L21.887712594170253 -20.70468052283833 L22.09896074504973 -20.79064349422718 L22.324881361638834 -20.87710851143067 L22.563197560102136 -20.962633076615184 L22.772804927987615 -21.033289207723314 A31 31 0 0 1 23.298472952110597 -20.449475721486795 L23.206293946626904 -20.248402181499344 L23.096327067961898 -20.020331255477032 L22.986720580297092 -19.80468631103876 L22.879147078480404 -19.603580976930257 L22.77303248967457 -19.414800385124398 L22.66875474382665 -19.238084403048983 L22.56828694637921 -19.075699934961488 L22.470826315473673 -18.925285510708044 L22.2724497833611 -18.63534976126174 L22.25190937288792 -18.593277228207583 L22.24274072107969 -18.558740576313987 L22.24461472289627 -18.5321938869311 L22.253055644444952 -18.517797677589435 L22.498375584179296 -18.218825320892805 L22.73980979410636 -17.91670636224093 L22.752136445462323 -17.90545675485451 L22.77771339910334 -17.898104337398642 L22.813401612190408 -17.899892058476446 L22.858825350925695 -17.911236240214595 L23.183670108823648 -18.044996737246507 L23.351060821582642 -18.10905470226285 L23.530785229078898 -18.173565407964457 L23.725320105411186 -18.238823116247712 L23.932037851930243 -18.303369154655055 L24.151114340633146 -18.366779767312618 L24.384835395820797 -18.42915598523234 L24.630785824583857 -18.489301211903033 L24.846630518181644 -18.537660345277434 A31 31 0 0 1 25.30839375131568 -17.90209777965343 L25.195701803930202 -17.71176107134546 L25.0624974319194 -17.49643421055654 L24.93095034540877 -17.293427589406974 L24.802944910961344 -17.10466842419393 L24.677678683819718 -16.92801398712058 L24.555500332333136 -16.76316606621157 L24.43860910908451 -16.612172901705893 L24.325959789092046 -16.472769873384284 L24.098363446042885 -16.205158416360018 L24.073537780861532 -16.1654634185857 L24.060809292738394 -16.132074347168555 L24.0598981439309 -16.105477196797686 L24.06678801158879 -16.09027753483905 L24.279512942020013 -15.767300063685052 L24.488044519611513 -15.441599397355983 L24.499127740109124 -15.429122930572419 L24.52379604362397 -15.41913727076951 L24.559475620682637 -15.417184764453433 L24.60583631330849 -15.423718727971188 L24.94288331683427 -15.522790947661143 L25.1160529263976 -15.569000902472656 L25.30153598971602 -15.61437189565129 L25.501826471604456 -15.658937683705565 L25.714158694883587 -15.70152224378716 L25.938663273554976 -15.741685757771634 L26.17762407055127 -15.779289769511005 L26.428514045248118 -15.813396693978275 L26.648231224926757 -15.838928996833893 A31 31 0 0 1 27.041030492459477 -15.158580708291385 L26.90906027973007 -14.981066200469622 L26.754077829348038 -14.780842571060951 L26.602031401399383 -14.59269845622327 L26.454996488647886 -14.418353544820159 L26.311951066168675 -14.255760725459202 L26.173210720629783 -14.104586974034728 L26.041176756282944 -13.966639425818537 L25.91457295672678 -13.839775122179013 L25.660250395903073 -13.597419964701242 L25.631411471196373 -13.560537408909092 L25.61526260273781 -13.52866173562196 L25.611576286043256 -13.502305528208382 L25.616839612978488 -13.486468944309927 L25.794638875253234 -13.143024967459906 L25.96798310490704 -12.797311038111193 L25.977701464463212 -12.783744406711431 L26.001190846756405 -12.771234909539913 L26.03647087487399 -12.765563567897747 L26.083260583940397 -12.767215725723489 L26.42881707559176 -12.830514212100365 L26.605868299478985 -12.858369870772078 L26.795077827363023 -12.884104057331985 L26.998929490374557 -12.907489653057366 L27.214549834142133 -12.92764616946157 L27.442022783637487 -12.944122544908984 L27.68360521794477 -12.956542353046238 L27.936685935510525 -12.964237292708285 L28.15786833387068 -12.966663027792062 A31 31 0 0 1 28.477400044828478 -12.248983054552326 L28.327597460022353 -12.086235633311771 L28.152534951427633 -11.903308927266636 L27.981655034523328 -11.732088665034684 L27.817201588740897 -11.574068166774858 L27.657944206506958 -11.427318366079954 L27.504161935174764 -11.291475075395756 L27.35843182147298 -11.168084525674693 L27.219260640074598 -11.055148898575991 L26.940998272673152 -10.840705334466117 L26.908462053735125 -10.807039313655565 L26.88906973532334 -10.777026275045392 L26.882648638798834 -10.751199774712923 L26.88622775890009 -10.734899777801855 L27.027153347093986 -10.374752139336456 L27.1634110331554 -10.012812661123329 L27.171658055389138 -9.99830450395999 L27.193711161872805 -9.98340822608865 L27.22820510567843 -9.974080185526233 L27.274911193341485 -9.970832436273083 L27.625191183883548 -9.997663677874082 L27.80418421183541 -10.006859847980415 L27.995047185102926 -10.012675278788418 L28.20022658775891 -10.014624464704388 L28.41677267040716 -10.01213209841945 L28.644721749490024 -10.004740816712502 L28.886278993403657 -9.991840347230674 L29.13877764853612 -9.973038994718296 L29.35900194493597 -9.952331585169034 A31 31 0 0 1 29.60176524302725 -9.205182979203125 L29.435771554611748 -9.058985739347975 L29.24254700928269 -8.895360139937678 L29.054705799551254 -8.742939655334617 L28.87463560710398 -8.602974875864923 L28.700911122321823 -8.473675915361852 L28.533771795942048 -8.354651412937704 L28.375942182507025 -8.24716975439565 L28.225728407853268 -8.14940015020156 L27.926574934601476 -7.965217668023172 L27.890697895055446 -7.9351370341632865 L27.868274592989053 -7.907315459361717 L27.85918906751183 -7.882301626652539 L27.8610447671903 -7.865716802906013 L27.96355267106852 -7.492811355717998 L28.061230945815296 -7.1186118133044705 L28.067916274625208 -7.103321084783457 L28.088291486849805 -7.086201232949906 L28.121621423476817 -7.073318693431654 L28.167732168066202 -7.065206620120069 L28.518897916621796 -7.055276648247407 L28.697871663567348 -7.045712574624256 L28.88829694754258 -7.031545534603464 L29.092556101370956 -7.012036955021235 L29.3076553987032 -6.986923012933735 L29.533583149561746 -6.955745054501532 L29.7724686513683 -6.9176656476438625 L30.02161881596311 -6.872573994509619 L30.238472186926384 -6.828960315039643 A31 31 0 0 1 30.401807306655797 -6.060528992825395 L30.22144117621761 -5.932483701909243 L30.012171602707674 -5.789951925441781 L29.80942712775123 -5.658001169192958 L29.61571307534967 -5.537625591926781 L29.429424849828756 -5.427194098084364 L29.250759681837373 -5.326292441276301 L29.08255978294187 -5.235897265456223 L28.9229491885821 -5.1543648684099015 L28.606182197534796 -5.002461409980409 L28.567357413733784 -4.976295732790535 L28.542148802402608 -4.950970440793135 L28.530498390891058 -4.927043332492891 L28.530610338712737 -4.910355388710472 L28.59357746022923 -4.528777762914714 L28.651606140042755 -4.1464179647937565 L28.656656529567403 -4.130512193336537 L28.675130612444008 -4.111356336220021 L28.70693137213198 -4.095060441544741 L28.751941574680682 -4.082172921747484 L29.100145635822468 -4.035590531250978 L29.27713922793751 -4.007370999890367 L29.465040483360184 -3.9733767060958933 L29.66614148232763 -3.932624101095801 L29.877437321429884 -3.8851637368106795 L30.09886843234727 -3.8305406938902107 L30.33246491249895 -3.7676995556068613 L30.575536845214778 -3.696811635438525 L30.786643399829728 -3.6307695266468607 A31 31 0 0 1 30.868760807445444 -2.8494745825550014 Z" id="SvgjsPath2158">
        </path>
      </g>
    </g>
  </g>
</svg>
