<?xml version="1.0" encoding="UTF-8"?>
<svg viewBox="-45.6 -45.6 101.2 91.2" height="91.2mm" width="101.2mm" xmlns:svgjs="http://svgjs.com/svgjs" xmlns:xlink="http://www.w3.org/1999/xlink" version="1.1" xmlns="http://www.w3.org/2000/svg" id="SvgjsSvg2047">
  <defs id="SvgjsDefs2048">
  </defs>
  <defs id="SvgjsDefs2048">
  </defs>
  <g id="SvgjsG2049">
    <g transform="matrix(1,0,0,1,0,0)" id="SvgjsG2050">
      <g fill="none" stroke-width="0.04" stroke="blue" id="SvgjsG2051">
        <circle cy="0" cx="0" r="40" id="SvgjsCircle2052">
        </circle>
        <circle cy="0" cx="0" r="41" id="SvgjsCircle2053">
        </circle>
      </g>
      <g fill="none" stroke-width="0.1" stroke="black" id="SvgjsG2054">
        <circle cy="0" cx="0" r="2" id="SvgjsCircle2055">
        </circle>
        <path d="M40.608316913658776 -2.6689026675498293  L40.32097531492269 -2.5305950591698414 L40.04696737191156 -2.4057012692248967 L39.784552969485645 -2.292661778782631 L39.53460557814977 -2.19115062883155 L39.29969692724692 -2.1014289863421105 L38.97935985200129 -1.9875748343621487 L38.935764005704556 -1.9657264251369673 L38.91017495035139 -1.9432945093442262 L38.90414022606763 -1.9320889480990668 L38.90260360283959 -1.9210200868633733 L38.9068698307717 -1.8353615385495519 L38.91997096157616 -1.52916982381572 L38.930933742243056 -1.2228940930761634 L38.93340135790994 -1.137164877093976 L38.93580169708469 -1.1262506995323733 L38.94269699652989 -1.1155531603031363 L38.96996715719385 -1.0951980887640496 L39.01514281847674 -1.076837521570904 L39.34342529523568 -0.9884677011964687 L39.58464928010154 -0.9174533609162253 L39.84179064007711 -0.8358657822665564 L40.11226508267836 -0.7437635515686017 L40.39522740446782 -0.6407531829277621 L40.69253471483618 -0.5254164927484051 L40.99805230035475 -0.39950103151832783 A41 41 0 0 1 40.99805230035475 0.3995010315183327 L40.69253471483618 0.52541649274841 L40.39522740446782 0.640753182927767 L40.11226508267836 0.7437635515686066 L39.84179064007711 0.835865782266561 L39.58464928010154 0.91745336091623 L39.34342529523568 0.9884677011964733 L39.01514281847674 1.0768375215709087 L38.96996715719385 1.0951980887640542 L38.94269699652989 1.1155531603031408 L38.93580169708469 1.1262506995323778 L38.93340135790994 1.1371648770939806 L38.930933742243056 1.2228940930761678 L38.91997096157616 1.5291698238157245 L38.9068698307717 1.8353615385495567 L38.90260360283959 1.921020086863378 L38.90414022606763 1.9320889480990713 L38.91017495035139 1.9432945093442306 L38.935764005704556 1.965726425136972 L38.97935985200129 1.9875748343621533 L39.29969692724692 2.1014289863421154 L39.53460557814977 2.1911506288315548 L39.784552969485645 2.292661778782636 L40.04696737191156 2.4057012692249016 L40.32097531492269 2.5305950591698463 L40.608316913658776 2.668902667549834 L40.90301347719626 2.8184006069238414 A41 41 0 0 1 40.84032449784573 3.614939613253618 L40.5258695078557 3.716496285650142 L40.220429484288196 3.8081509685805703 L39.93025734052876 3.888642822740211 L39.65339042263268 3.959239952814502 L39.390640456009855 4.020400945609761 L39.14458836326281 4.072270156658315 L38.810384455624764 4.134610816098669 L38.76390750232997 4.149370342257525 L38.73512436596394 4.167523073758169 L38.727411003171305 4.177646637084844 L38.72416174693907 4.188338841438356 L38.714975501344334 4.273610175964522 L38.68001639839438 4.578081630982779 L38.64293212894653 4.882301555970474 L38.631958360129296 4.967361323181218 L38.63262179361745 4.978516624880714 L38.637758736657815 4.990161122130492 L38.661508921664705 5.014531581956657 L38.70325617008579 5.039733130505668 L39.01367285922632 5.178369665383852 L39.2408178862183 5.2862454463210655 L39.48203030013096 5.407054317578228 L39.73476679032894 5.540334141716784 L39.998131004476186 5.686341341219422 L40.273735335073 5.846767155402433 L40.55579397431865 6.018925868411019 A41 41 0 0 1 40.430802514021465 6.808090890183791 L40.109348839140175 6.884662643090417 L39.797659241687924 6.952070237173377 L39.50206628371682 7.009547317804666 L39.220513867142344 7.058204092472457 L38.95377523478971 7.098561421554629 L38.704412027133884 7.130965712437117 L38.3663471668414 7.166892860047566 L38.31885546740693 7.177960347785323 L38.2887368129459 7.193798821621429 L38.28025294225239 7.203285993911205 L38.27617480170782 7.213690304061267 L38.26032656244407 7.297978030998463 L38.201586671705826 7.598768042528199 L38.14074790046751 7.899140560768819 L38.12313424769905 7.983077125126386 L38.12292040115926 7.994250091145194 L38.12712789199418 8.006261732201857 L38.148892778866475 8.032420484072617 L38.188534043743026 8.060819796018286 L38.48711652466588 8.223383973455844 L38.7050975031222 8.348748802779019 L38.93608778486859 8.488110568477936 L39.17758815833316 8.640809011876927 L39.42868491565882 8.807029438000006 L39.690852785770495 8.988584379494602 L39.958534515419345 9.182342450423489 A41 41 0 0 1 39.77201118809212 9.959268022856026 L39.445540697119405 10.010382765953395 L39.129523195798015 10.053127680956063 L38.830331852495775 10.08723562274384 L38.54582980151676 10.113652056809286 L38.27674703580237 10.132956905824404 L38.02561012033464 10.145696493312018 L37.6857685896694 10.154988626280554 L37.63755494621484 10.162295840854995 L37.60628646517903 10.175722407568536 L37.59708439246865 10.18451469724944 L37.59220251070433 10.194566967164198 L37.5697899874367 10.277351424647339 L37.48763145986956 10.572605522244645 L37.4034132780964 10.86727873727924 L37.379268335403175 10.949574601952625 L37.37817852727047 10.96069634723985 L37.3814306253198 10.973001076342008 L37.401076026292394 11.000786842853412 L37.43836690604437 11.032208826993868 L37.72327431846592 11.217698384778819 L37.93074732316836 11.359779346627139 L38.15009134084947 11.516834795139786 L38.378866667471186 11.688010421118275 L38.6161478729682 11.873419269660847 L38.86326293049584 12.07498399187957 L39.114917403671384 12.289146837790383 A41 41 0 0 1 38.86801218765241 13.04904295637467 L38.53853767972756 13.074385550274204 L38.220140627519164 13.092204249581467 L37.919195513008454 13.10273276572257 L37.63349787737572 13.1067459930853 L37.36372996302931 13.104879341219675 L37.11236768234503 13.097875681519207 L36.77284471735236 13.080475510756132 L36.72420638302228 13.083977400759512 L36.691980855995105 13.094909281101913 L36.68211731510612 13.102952480784332 L36.6764617905465 13.112590734877035 L36.64762316393386 13.193361529197114 L36.542552534180764 13.481259373168355 L36.435474174968775 13.768416526637443 L36.40494680395149 13.848564310254787 L36.40298775325541 13.859566265552377 L36.40526440825325 13.87208821995338 L36.42266920289637 13.901329692615178 L36.45737978684965 13.93558062196932 L36.72685558183098 14.142851955296388 L36.92254147271377 14.300773073293346 L37.1288868975213 14.474553905553408 L37.343526701336025 14.663151359455563 L37.565529437468506 14.86660552321166 L37.79606813590835 15.086937312614964 L38.03014381909986 15.32018454834629 A41 41 0 0 1 37.7243789671502 16.058366200820156 L37.393931762175974 16.0577804000032 L37.0751181827852 16.050563025408508 L36.77427472377138 16.037447204099838 L36.489142924412704 16.01903248187863 L36.22035307033315 15.996005837661732 L35.97031515647919 15.969302110664191 L35.633204029141105 15.925316914008407 L35.584440875440535 15.924991889124353 L35.551456983512196 15.933361684418085 L35.54099278645413 15.94060620510134 L35.53459848728879 15.949771020330466 L35.499511557054014 16.028030172681486 L35.37217662048692 16.306796777082827 L35.24289825752782 16.58466744964583 L35.206176669580174 16.66217301446929 L35.203360454519704 16.672987349064314 L35.204647630130935 16.685649326751307 L35.219704512097934 16.716166222160762 L35.251620797959994 16.75303492835954 L35.50400356761524 16.980810140534043 L35.68669587608893 17.153597778473088 L35.87877051986213 17.34303257786169 L36.07795147510438 17.547889093669188 L36.283307021180654 17.768134210063884 L36.49584801279493 18.005874647902335 L36.71090175157748 18.256768226683317 A41 41 0 0 1 36.34816240568653 18.968684277688947 L36.01877982056644 18.94217369381234 L35.701515305726495 18.909964742830084 L35.402628302174996 18.873285447471464 L35.11982027144937 18.832556308552324 L34.85366565646877 18.788511638902897 L34.606493676330075 18.74227248196511 L34.27387278884745 18.671973442780555 L34.22528545683436 18.667823506895566 L34.19174655666683 18.6735796145694 L34.18074621869427 18.679980791374433 L34.173652567903865 18.688615663606484 L34.132533656639445 18.76388068029039 L33.98371947548545 19.0317973563064 L33.833038152876306 19.298668382865593 L33.79034874879917 19.37305388131481 L33.786692732276634 19.383613921238364 L33.78698249263559 19.396337856908364 L33.799598631242205 19.427942028257384 L33.82852384449746 19.467201203466985 L34.06225756512593 19.714075984562932 L34.23082993235743 19.90066484919845 L34.40744959104613 20.104585687183896 L34.589943680892425 20.324438256355084 L34.77738595168331 20.560116441006862 L34.97061885058166 20.813799778424478 L35.16532476714301 21.080792857911344 A41 41 0 0 1 34.74784733600128 21.762054108258187 L34.4215601239034 21.709782187887186 L34.10780071484944 21.65278023941074 L33.81271290452717 21.592763610055158 L33.53397224798723 21.529971163123342 L33.272093803812325 21.465180018076104 L33.029311654839475 21.39969051097668 L32.70323172559131 21.30351104621673 L32.655119772324475 21.295561785065523 L32.621232642390126 21.298668716801554 L32.60976398424464 21.304187084344754 L32.602014716545185 21.312238776721035 L32.555117336012486 21.384045623881818 L32.38574139918414 21.63946057611351 L32.21458611738545 21.893686608046536 L32.16619209155063 21.964493428787886 L32.161718814123645 21.974734067882267 L32.16100937276134 21.98744151424074 L32.1711069853178 22.019938111303503 L32.19686279240793 22.06134570965376 L32.41050641789758 22.325797994551497 L32.5639195391869 22.525037703485914 L32.72399529386329 22.742187340291466 L32.8886773815643 22.975680498628996 L33.05705073313947 23.225338717158543 L33.22978419424373 23.49340091202187 L33.40294186186201 23.77484739109538 A41 41 0 0 1 32.93330023265779 24.421253638632678 L32.61212006274623 24.34354265553855 L32.30380019057066 24.262099145535345 L32.014330887954905 24.17911520466033 L31.7413761344389 24.094646586031775 L31.485388428761453 24.009508424541192 L31.24849294363613 23.92517233186886 L30.93096436381881 23.803705419916685 L30.883624415488974 23.79200584333766 L30.849597981212455 23.792444443868575 L30.83773171098522 23.797045979578993 L30.82937460318898 23.80446485073854 L30.776987891333956 23.87237081528525 L30.588094457805017 24.113709325618036 L30.397520446043988 24.35372297489929 L30.343720163713385 24.420514570337247 L30.338457204624813 24.43037267165708 L30.336752935483176 24.442985283071565 L30.344269766850246 24.476173953520966 L30.366697374659857 24.51947468339863 L30.558933721015848 24.79987403582245 L30.696241753455197 25.010536209996257 L30.83878668386111 25.23957584590143 L30.984641449583805 25.485270030439803 L31.132907804240975 25.747369056910095 L31.28407686832373 26.02815741664807 L31.4346187123973 26.32232208417429 A41 41 0 0 1 30.915708381946352 26.9298880194341 L30.601615436771844 26.827217087669144 L30.300635996013394 26.72183414246106 L30.018569875613093 26.61639451365707 L29.753083881943112 26.51077050045429 L29.504565164093172 26.405810227597257 L29.275016882256903 26.303147509407946 L28.96799732115398 26.15714203416757 L28.921721244284722 26.141764273940844 L28.887765289948295 26.139531839148518 L28.875574567141204 26.143188173028335 L28.86666114359675 26.14992848316343 L28.809108081918332 26.213514902243606 L28.601861742519954 26.439289038508086 L28.393043952951373 26.663610541177118 L28.33416911075598 26.725975118915343 L28.328148917898705 26.735389903987837 L28.325460328363715 26.74782991951485 L28.330350034776426 26.781506044161212 L28.34931116964544 26.826432942167635 L28.518955035867403 27.121050606867602 L28.639311429777244 27.341836443924734 L28.763446699015724 27.58135397341076 L28.889574899627792 27.837734397800695 L29.016820145986944 28.110658304556768 L29.14549280549931 28.40244167556001 L29.272490685499214 28.70751090854395 A41 41 0 0 1 28.707510908543945 29.272490685499214 L28.402441675560002 29.14549280549931 L28.110658304556765 29.016820145986944 L27.837734397800688 28.889574899627792 L27.581353973410756 28.763446699015724 L27.34183644392473 28.639311429777244 L27.121050606867595 28.518955035867403 L26.82643294216763 28.34931116964544 L26.78150604416121 28.330350034776426 L26.747829919514846 28.325460328363715 L26.73538990398783 28.328148917898705 L26.725975118915336 28.33416911075598 L26.66361054117711 28.393043952951373 L26.43928903850808 28.601861742519954 L26.2135149022436 28.809108081918332 L26.14992848316342 28.86666114359675 L26.143188173028328 28.875574567141204 L26.139531839148514 28.887765289948295 L26.14176427394084 28.921721244284722 L26.157142034167567 28.96799732115398 L26.30314750940794 29.275016882256903 L26.405810227597254 29.504565164093172 L26.510770500454285 29.753083881943112 L26.61639451365707 30.018569875613093 L26.721834142461056 30.300635996013394 L26.827217087669137 30.601615436771844 L26.929888019434095 30.915708381946352 A41 41 0 0 1 26.32232208417429 31.4346187123973 L26.02815741664807 31.28407686832373 L25.747369056910095 31.132907804240975 L25.485270030439803 30.984641449583805 L25.23957584590143 30.83878668386111 L25.010536209996257 30.696241753455197 L24.79987403582245 30.558933721015848 L24.51947468339863 30.366697374659857 L24.476173953520966 30.344269766850246 L24.442985283071565 30.336752935483176 L24.43037267165708 30.338457204624813 L24.420514570337247 30.343720163713385 L24.35372297489929 30.397520446043988 L24.113709325618036 30.588094457805017 L23.87237081528525 30.776987891333956 L23.80446485073854 30.82937460318898 L23.797045979578993 30.83773171098522 L23.792444443868575 30.849597981212455 L23.79200584333766 30.883624415488974 L23.803705419916685 30.93096436381881 L23.92517233186886 31.24849294363613 L24.009508424541192 31.485388428761453 L24.094646586031775 31.7413761344389 L24.17911520466033 32.014330887954905 L24.262099145535345 32.30380019057066 L24.34354265553855 32.61212006274623 L24.421253638632678 32.93330023265779 A41 41 0 0 1 23.774847391095374 33.40294186186201 L23.493400912021862 33.22978419424373 L23.22533871715854 33.05705073313947 L22.975680498628993 32.8886773815643 L22.74218734029146 32.72399529386329 L22.525037703485907 32.5639195391869 L22.325797994551493 32.41050641789758 L22.061345709653757 32.19686279240793 L22.0199381113035 32.1711069853178 L21.987441514240736 32.16100937276134 L21.974734067882263 32.161718814123645 L21.964493428787883 32.16619209155063 L21.893686608046533 32.21458611738545 L21.639460576113507 32.38574139918414 L21.384045623881814 32.555117336012486 L21.31223877672103 32.602014716545185 L21.30418708434475 32.60976398424464 L21.29866871680155 32.621232642390126 L21.29556178506552 32.655119772324475 L21.303511046216727 32.70323172559131 L21.399690510976676 33.029311654839475 L21.465180018076097 33.272093803812325 L21.529971163123335 33.53397224798723 L21.592763610055155 33.81271290452717 L21.652780239410735 34.10780071484944 L21.70978218788718 34.4215601239034 L21.76205410825818 34.74784733600128 A41 41 0 0 1 21.080792857911344 35.16532476714302 L20.813799778424475 34.97061885058166 L20.560116441006862 34.77738595168331 L20.32443825635508 34.58994368089243 L20.104585687183892 34.40744959104614 L19.900664849198446 34.23082993235743 L19.714075984562932 34.06225756512594 L19.467201203466985 33.82852384449747 L19.427942028257384 33.79959863124221 L19.39633785690836 33.786982492635595 L19.38361392123836 33.786692732276634 L19.37305388131481 33.79034874879917 L19.298668382865593 33.83303815287631 L19.031797356306395 33.98371947548545 L18.76388068029039 34.13253365663945 L18.688615663606484 34.173652567903865 L18.67998079137443 34.18074621869427 L18.673579614569398 34.191746556666835 L18.667823506895566 34.225285456834364 L18.671973442780555 34.273872788847456 L18.74227248196511 34.60649367633008 L18.788511638902893 34.85366565646877 L18.83255630855232 35.11982027144938 L18.87328544747146 35.402628302175 L18.909964742830084 35.701515305726495 L18.942173693812336 36.01877982056644 L18.968684277688947 36.34816240568654 A41 41 0 0 1 18.256768226683313 36.71090175157748 L18.005874647902335 36.49584801279493 L17.76813421006388 36.283307021180654 L17.547889093669184 36.07795147510438 L17.343032577861685 35.87877051986213 L17.153597778473088 35.68669587608893 L16.980810140534043 35.50400356761525 L16.753034928359536 35.251620797959994 L16.71616622216076 35.219704512097934 L16.685649326751303 35.204647630130935 L16.67298734906431 35.203360454519704 L16.66217301446929 35.206176669580174 L16.58466744964583 35.24289825752782 L16.306796777082823 35.37217662048692 L16.028030172681486 35.499511557054014 L15.949771020330466 35.53459848728879 L15.940606205101336 35.54099278645413 L15.933361684418081 35.551456983512196 L15.92499188912435 35.584440875440535 L15.925316914008404 35.633204029141105 L15.969302110664191 35.97031515647918 L15.996005837661732 36.22035307033315 L16.019032481878625 36.489142924412704 L16.037447204099834 36.77427472377138 L16.050563025408504 37.0751181827852 L16.0577804000032 37.393931762175974 L16.058366200820153 37.7243789671502 A41 41 0 0 1 15.320184548346289 38.03014381909986 L15.08693731261496 37.79606813590835 L14.866605523211659 37.565529437468506 L14.663151359455561 37.343526701336025 L14.474553905553407 37.1288868975213 L14.300773073293344 36.92254147271377 L14.142851955296386 36.72685558183098 L13.935580621969319 36.45737978684965 L13.901329692615175 36.42266920289637 L13.872088219953376 36.40526440825325 L13.859566265552374 36.40298775325541 L13.848564310254785 36.40494680395149 L13.768416526637441 36.435474174968775 L13.481259373168351 36.542552534180764 L13.193361529197112 36.64762316393386 L13.112590734877033 36.6764617905465 L13.102952480784328 36.68211731510612 L13.09490928110191 36.691980855995105 L13.083977400759508 36.72420638302228 L13.08047551075613 36.77284471735236 L13.097875681519206 37.11236768234503 L13.104879341219673 37.36372996302931 L13.106745993085298 37.63349787737572 L13.102732765722568 37.919195513008454 L13.092204249581465 38.220140627519164 L13.074385550274204 38.53853767972756 L13.049042956374668 38.86801218765241 A41 41 0 0 1 12.289146837790382 39.114917403671384 L12.074983991879567 38.86326293049584 L11.873419269660845 38.6161478729682 L11.688010421118273 38.378866667471186 L11.516834795139784 38.15009134084947 L11.359779346627137 37.93074732316836 L11.217698384778817 37.72327431846592 L11.032208826993864 37.43836690604437 L11.00078684285341 37.401076026292394 L10.973001076342006 37.3814306253198 L10.960696347239848 37.37817852727047 L10.949574601952623 37.379268335403175 L10.867278737279236 37.4034132780964 L10.572605522244643 37.48763145986956 L10.277351424647335 37.5697899874367 L10.194566967164196 37.59220251070433 L10.184514697249439 37.59708439246865 L10.175722407568534 37.60628646517903 L10.162295840854993 37.63755494621484 L10.15498862628055 37.6857685896694 L10.145696493312016 38.02561012033464 L10.132956905824402 38.27674703580237 L10.113652056809284 38.54582980151676 L10.087235622743838 38.830331852495775 L10.053127680956061 39.129523195798015 L10.010382765953391 39.445540697119405 L9.959268022856024 39.77201118809212 A41 41 0 0 1 9.182342450423485 39.958534515419345 L8.988584379494599 39.690852785770495 L8.807029438000002 39.42868491565882 L8.640809011876923 39.17758815833316 L8.488110568477932 38.93608778486859 L8.348748802779015 38.7050975031222 L8.22338397345584 38.48711652466588 L8.060819796018283 38.188534043743026 L8.032420484072613 38.148892778866475 L8.006261732201855 38.12712789199418 L7.99425009114519 38.12292040115926 L7.983077125126384 38.12313424769905 L7.899140560768815 38.14074790046751 L7.598768042528196 38.201586671705826 L7.297978030998459 38.26032656244407 L7.213690304061265 38.27617480170782 L7.2032859939112015 38.28025294225239 L7.193798821621426 38.2887368129459 L7.177960347785319 38.31885546740693 L7.166892860047563 38.3663471668414 L7.1309657124371135 38.704412027133884 L7.098561421554625 38.95377523478971 L7.058204092472454 39.220513867142344 L7.009547317804662 39.50206628371682 L6.952070237173373 39.797659241687924 L6.884662643090413 40.109348839140175 L6.808090890183787 40.430802514021465 A41 41 0 0 1 6.018925868411017 40.55579397431865 L5.84676715540243 40.273735335073 L5.68634134121942 39.998131004476186 L5.540334141716782 39.73476679032894 L5.407054317578226 39.48203030013096 L5.286245446321064 39.2408178862183 L5.178369665383849 39.01367285922632 L5.039733130505665 38.70325617008579 L5.014531581956654 38.661508921664705 L4.99016112213049 38.637758736657815 L4.978516624880712 38.63262179361745 L4.9673613231812155 38.631958360129296 L4.882301555970472 38.64293212894653 L4.578081630982776 38.68001639839438 L4.27361017596452 38.714975501344334 L4.1883388414383536 38.72416174693907 L4.177646637084841 38.727411003171305 L4.167523073758168 38.73512436596394 L4.149370342257522 38.76390750232997 L4.134610816098666 38.810384455624764 L4.072270156658313 39.14458836326281 L4.020400945609759 39.390640456009855 L3.9592399528145004 39.65339042263268 L3.8886428227402092 39.93025734052876 L3.8081509685805686 40.220429484288196 L3.7164962856501393 40.5258695078557 L3.614939613253615 40.84032449784573 A41 41 0 0 1 2.818400606923839 40.90301347719626 L2.668902667549832 40.608316913658776 L2.530595059169844 40.32097531492269 L2.4057012692248994 40.04696737191156 L2.2926617787826338 39.784552969485645 L2.1911506288315525 39.53460557814977 L2.101428986342113 39.29969692724692 L1.987574834362151 38.97935985200129 L1.9657264251369697 38.935764005704556 L1.9432945093442289 38.91017495035139 L1.9320889480990693 38.90414022606763 L1.9210200868633758 38.90260360283959 L1.8353615385495545 38.9068698307717 L1.5291698238157225 38.91997096157616 L1.2228940930761656 38.930933742243056 L1.1371648770939784 38.93340135790994 L1.1262506995323758 38.93580169708469 L1.1155531603031386 38.94269699652989 L1.095198088764052 38.96996715719385 L1.0768375215709065 39.01514281847674 L0.9884677011964711 39.34342529523568 L0.9174533609162278 39.58464928010154 L0.8358657822665588 39.84179064007711 L0.7437635515686044 40.11226508267836 L0.6407531829277647 40.39522740446782 L0.5254164927484077 40.69253471483618 L0.3995010315183305 40.99805230035475 A41 41 0 0 1 -0.3995010315183305 40.99805230035475 L-0.5254164927484077 40.69253471483618 L-0.6407531829277647 40.39522740446782 L-0.7437635515686044 40.11226508267836 L-0.8358657822665588 39.84179064007711 L-0.9174533609162278 39.58464928010154 L-0.9884677011964711 39.34342529523568 L-1.0768375215709065 39.01514281847674 L-1.095198088764052 38.96996715719385 L-1.1155531603031386 38.94269699652989 L-1.1262506995323758 38.93580169708469 L-1.1371648770939784 38.93340135790994 L-1.2228940930761656 38.930933742243056 L-1.5291698238157225 38.91997096157616 L-1.8353615385495545 38.9068698307717 L-1.9210200868633758 38.90260360283959 L-1.9320889480990693 38.90414022606763 L-1.9432945093442289 38.91017495035139 L-1.9657264251369697 38.935764005704556 L-1.987574834362151 38.97935985200129 L-2.101428986342113 39.29969692724692 L-2.1911506288315525 39.53460557814977 L-2.2926617787826338 39.784552969485645 L-2.4057012692248994 40.04696737191156 L-2.530595059169844 40.32097531492269 L-2.668902667549832 40.608316913658776 L-2.818400606923839 40.90301347719626 A41 41 0 0 1 -3.614939613253615 40.84032449784573 L-3.7164962856501393 40.5258695078557 L-3.8081509685805686 40.220429484288196 L-3.8886428227402092 39.93025734052876 L-3.9592399528145004 39.65339042263268 L-4.020400945609759 39.390640456009855 L-4.072270156658313 39.14458836326281 L-4.134610816098666 38.810384455624764 L-4.149370342257522 38.76390750232997 L-4.167523073758168 38.73512436596394 L-4.177646637084841 38.727411003171305 L-4.1883388414383536 38.72416174693907 L-4.27361017596452 38.714975501344334 L-4.578081630982776 38.68001639839438 L-4.882301555970472 38.64293212894653 L-4.9673613231812155 38.631958360129296 L-4.978516624880712 38.63262179361745 L-4.99016112213049 38.637758736657815 L-5.014531581956654 38.661508921664705 L-5.039733130505665 38.70325617008579 L-5.178369665383849 39.01367285922632 L-5.286245446321064 39.2408178862183 L-5.407054317578226 39.48203030013096 L-5.540334141716782 39.73476679032894 L-5.68634134121942 39.998131004476186 L-5.84676715540243 40.273735335073 L-6.018925868411017 40.55579397431865 A41 41 0 0 1 -6.808090890183787 40.430802514021465 L-6.884662643090413 40.109348839140175 L-6.952070237173373 39.797659241687924 L-7.009547317804662 39.50206628371682 L-7.058204092472454 39.220513867142344 L-7.098561421554625 38.95377523478971 L-7.1309657124371135 38.704412027133884 L-7.166892860047563 38.3663471668414 L-7.177960347785319 38.31885546740693 L-7.193798821621426 38.2887368129459 L-7.2032859939112015 38.28025294225239 L-7.213690304061265 38.27617480170782 L-7.297978030998459 38.26032656244407 L-7.598768042528196 38.201586671705826 L-7.899140560768815 38.14074790046751 L-7.983077125126384 38.12313424769905 L-7.99425009114519 38.12292040115926 L-8.006261732201855 38.12712789199418 L-8.032420484072613 38.148892778866475 L-8.060819796018283 38.188534043743026 L-8.22338397345584 38.48711652466588 L-8.348748802779015 38.7050975031222 L-8.488110568477932 38.93608778486859 L-8.640809011876923 39.17758815833316 L-8.807029438000002 39.42868491565882 L-8.988584379494599 39.690852785770495 L-9.182342450423485 39.958534515419345 A41 41 0 0 1 -9.959268022856024 39.77201118809212 L-10.010382765953391 39.445540697119405 L-10.053127680956061 39.129523195798015 L-10.087235622743838 38.830331852495775 L-10.113652056809284 38.54582980151676 L-10.132956905824402 38.27674703580237 L-10.145696493312016 38.02561012033464 L-10.15498862628055 37.6857685896694 L-10.162295840854993 37.63755494621484 L-10.175722407568534 37.60628646517903 L-10.184514697249439 37.59708439246865 L-10.194566967164196 37.59220251070433 L-10.277351424647335 37.5697899874367 L-10.572605522244643 37.48763145986956 L-10.867278737279236 37.4034132780964 L-10.949574601952623 37.379268335403175 L-10.960696347239848 37.37817852727047 L-10.973001076342006 37.3814306253198 L-11.00078684285341 37.401076026292394 L-11.032208826993864 37.43836690604437 L-11.217698384778817 37.72327431846592 L-11.359779346627137 37.93074732316836 L-11.516834795139784 38.15009134084947 L-11.688010421118273 38.378866667471186 L-11.873419269660845 38.6161478729682 L-12.074983991879567 38.86326293049584 L-12.289146837790382 39.114917403671384 A41 41 0 0 1 -13.049042956374668 38.86801218765241 L-13.074385550274204 38.53853767972756 L-13.092204249581465 38.220140627519164 L-13.102732765722568 37.919195513008454 L-13.106745993085298 37.63349787737572 L-13.104879341219673 37.36372996302931 L-13.097875681519206 37.11236768234503 L-13.08047551075613 36.77284471735236 L-13.083977400759508 36.72420638302228 L-13.09490928110191 36.691980855995105 L-13.102952480784328 36.68211731510612 L-13.112590734877033 36.6764617905465 L-13.193361529197112 36.64762316393386 L-13.481259373168351 36.542552534180764 L-13.768416526637441 36.435474174968775 L-13.848564310254785 36.40494680395149 L-13.859566265552374 36.40298775325541 L-13.872088219953376 36.40526440825325 L-13.901329692615175 36.42266920289637 L-13.935580621969319 36.45737978684965 L-14.142851955296386 36.72685558183098 L-14.300773073293344 36.92254147271377 L-14.474553905553407 37.1288868975213 L-14.663151359455561 37.343526701336025 L-14.866605523211659 37.565529437468506 L-15.08693731261496 37.79606813590835 L-15.320184548346289 38.03014381909986 A41 41 0 0 1 -16.058366200820153 37.7243789671502 L-16.0577804000032 37.393931762175974 L-16.050563025408504 37.0751181827852 L-16.037447204099834 36.77427472377138 L-16.019032481878625 36.489142924412704 L-15.996005837661732 36.22035307033315 L-15.969302110664191 35.97031515647918 L-15.925316914008404 35.633204029141105 L-15.92499188912435 35.584440875440535 L-15.933361684418081 35.551456983512196 L-15.940606205101336 35.54099278645413 L-15.949771020330466 35.53459848728879 L-16.028030172681486 35.499511557054014 L-16.306796777082823 35.37217662048692 L-16.58466744964583 35.24289825752782 L-16.66217301446929 35.206176669580174 L-16.67298734906431 35.203360454519704 L-16.685649326751303 35.204647630130935 L-16.71616622216076 35.219704512097934 L-16.753034928359536 35.251620797959994 L-16.980810140534043 35.50400356761525 L-17.153597778473088 35.68669587608893 L-17.343032577861685 35.87877051986213 L-17.547889093669184 36.07795147510438 L-17.76813421006388 36.283307021180654 L-18.005874647902335 36.49584801279493 L-18.256768226683313 36.71090175157748 A41 41 0 0 1 -18.968684277688947 36.34816240568654 L-18.942173693812336 36.01877982056644 L-18.909964742830084 35.701515305726495 L-18.87328544747146 35.402628302175 L-18.83255630855232 35.11982027144938 L-18.788511638902893 34.85366565646877 L-18.74227248196511 34.60649367633008 L-18.671973442780555 34.273872788847456 L-18.667823506895566 34.225285456834364 L-18.673579614569398 34.191746556666835 L-18.67998079137443 34.18074621869427 L-18.688615663606484 34.173652567903865 L-18.76388068029039 34.13253365663945 L-19.031797356306395 33.98371947548545 L-19.298668382865593 33.83303815287631 L-19.37305388131481 33.79034874879917 L-19.38361392123836 33.786692732276634 L-19.39633785690836 33.786982492635595 L-19.427942028257384 33.79959863124221 L-19.467201203466985 33.82852384449747 L-19.714075984562932 34.06225756512594 L-19.900664849198446 34.23082993235743 L-20.104585687183892 34.40744959104614 L-20.32443825635508 34.58994368089243 L-20.560116441006862 34.77738595168331 L-20.813799778424475 34.97061885058166 L-21.080792857911344 35.16532476714302 A41 41 0 0 1 -21.76205410825818 34.74784733600128 L-21.70978218788718 34.4215601239034 L-21.652780239410735 34.10780071484944 L-21.592763610055155 33.81271290452717 L-21.529971163123335 33.53397224798723 L-21.465180018076097 33.272093803812325 L-21.399690510976676 33.029311654839475 L-21.303511046216727 32.70323172559131 L-21.29556178506552 32.655119772324475 L-21.29866871680155 32.621232642390126 L-21.30418708434475 32.60976398424464 L-21.31223877672103 32.602014716545185 L-21.384045623881814 32.555117336012486 L-21.639460576113507 32.38574139918414 L-21.893686608046533 32.21458611738545 L-21.964493428787883 32.16619209155063 L-21.974734067882263 32.161718814123645 L-21.987441514240736 32.16100937276134 L-22.0199381113035 32.1711069853178 L-22.061345709653757 32.19686279240793 L-22.325797994551493 32.41050641789758 L-22.525037703485907 32.5639195391869 L-22.74218734029146 32.72399529386329 L-22.975680498628993 32.8886773815643 L-23.22533871715854 33.05705073313947 L-23.493400912021862 33.22978419424373 L-23.774847391095374 33.40294186186201 A41 41 0 0 1 -24.421253638632678 32.93330023265779 L-24.34354265553855 32.61212006274623 L-24.262099145535345 32.30380019057066 L-24.17911520466033 32.014330887954905 L-24.094646586031775 31.7413761344389 L-24.009508424541192 31.485388428761453 L-23.92517233186886 31.24849294363613 L-23.803705419916685 30.93096436381881 L-23.79200584333766 30.883624415488974 L-23.792444443868575 30.849597981212455 L-23.797045979578993 30.83773171098522 L-23.80446485073854 30.82937460318898 L-23.87237081528525 30.776987891333956 L-24.113709325618036 30.588094457805017 L-24.35372297489929 30.397520446043988 L-24.420514570337247 30.343720163713385 L-24.43037267165708 30.338457204624813 L-24.442985283071565 30.336752935483176 L-24.476173953520966 30.344269766850246 L-24.51947468339863 30.366697374659857 L-24.79987403582245 30.558933721015848 L-25.010536209996257 30.696241753455197 L-25.23957584590143 30.83878668386111 L-25.485270030439803 30.984641449583805 L-25.747369056910095 31.132907804240975 L-26.02815741664807 31.28407686832373 L-26.32232208417429 31.4346187123973 A41 41 0 0 1 -26.929888019434095 30.915708381946352 L-26.827217087669137 30.601615436771844 L-26.721834142461056 30.300635996013394 L-26.61639451365707 30.018569875613093 L-26.510770500454285 29.753083881943112 L-26.405810227597254 29.504565164093172 L-26.30314750940794 29.275016882256903 L-26.157142034167567 28.96799732115398 L-26.14176427394084 28.921721244284722 L-26.139531839148514 28.887765289948295 L-26.143188173028328 28.875574567141204 L-26.14992848316342 28.86666114359675 L-26.2135149022436 28.809108081918332 L-26.43928903850808 28.601861742519954 L-26.66361054117711 28.393043952951373 L-26.725975118915336 28.33416911075598 L-26.73538990398783 28.328148917898705 L-26.747829919514846 28.325460328363715 L-26.78150604416121 28.330350034776426 L-26.82643294216763 28.34931116964544 L-27.121050606867595 28.518955035867403 L-27.34183644392473 28.639311429777244 L-27.581353973410756 28.763446699015724 L-27.837734397800688 28.889574899627792 L-28.110658304556765 29.016820145986944 L-28.402441675560002 29.14549280549931 L-28.707510908543945 29.272490685499214 A41 41 0 0 1 -29.272490685499214 28.70751090854395 L-29.14549280549931 28.40244167556001 L-29.016820145986944 28.110658304556768 L-28.889574899627792 27.837734397800695 L-28.763446699015724 27.58135397341076 L-28.639311429777244 27.341836443924734 L-28.518955035867403 27.121050606867602 L-28.34931116964544 26.826432942167635 L-28.330350034776426 26.781506044161212 L-28.325460328363715 26.74782991951485 L-28.328148917898705 26.735389903987837 L-28.33416911075598 26.725975118915343 L-28.393043952951373 26.663610541177118 L-28.601861742519954 26.439289038508086 L-28.809108081918332 26.213514902243606 L-28.86666114359675 26.14992848316343 L-28.875574567141204 26.143188173028335 L-28.887765289948295 26.139531839148518 L-28.921721244284722 26.141764273940844 L-28.96799732115398 26.15714203416757 L-29.275016882256903 26.303147509407946 L-29.504565164093172 26.405810227597257 L-29.753083881943112 26.51077050045429 L-30.018569875613093 26.61639451365707 L-30.300635996013394 26.72183414246106 L-30.601615436771844 26.827217087669144 L-30.915708381946352 26.9298880194341 A41 41 0 0 1 -31.4346187123973 26.32232208417429 L-31.28407686832373 26.02815741664807 L-31.132907804240975 25.747369056910095 L-30.984641449583805 25.485270030439803 L-30.83878668386111 25.23957584590143 L-30.696241753455197 25.010536209996257 L-30.558933721015848 24.79987403582245 L-30.366697374659857 24.51947468339863 L-30.344269766850246 24.476173953520966 L-30.336752935483176 24.442985283071565 L-30.338457204624813 24.43037267165708 L-30.343720163713385 24.420514570337247 L-30.397520446043988 24.35372297489929 L-30.588094457805017 24.113709325618036 L-30.776987891333956 23.87237081528525 L-30.82937460318898 23.80446485073854 L-30.83773171098522 23.797045979578993 L-30.849597981212455 23.792444443868575 L-30.883624415488974 23.79200584333766 L-30.93096436381881 23.803705419916685 L-31.24849294363613 23.92517233186886 L-31.485388428761453 24.009508424541192 L-31.7413761344389 24.094646586031775 L-32.014330887954905 24.17911520466033 L-32.30380019057066 24.262099145535345 L-32.61212006274623 24.34354265553855 L-32.93330023265779 24.421253638632678 A41 41 0 0 1 -33.40294186186201 23.77484739109538 L-33.22978419424373 23.49340091202187 L-33.05705073313947 23.225338717158543 L-32.8886773815643 22.975680498628996 L-32.72399529386329 22.742187340291466 L-32.5639195391869 22.525037703485914 L-32.41050641789758 22.325797994551497 L-32.19686279240793 22.06134570965376 L-32.1711069853178 22.019938111303503 L-32.16100937276134 21.98744151424074 L-32.161718814123645 21.974734067882267 L-32.16619209155063 21.964493428787886 L-32.21458611738545 21.893686608046536 L-32.38574139918414 21.63946057611351 L-32.555117336012486 21.384045623881818 L-32.602014716545185 21.312238776721035 L-32.60976398424464 21.304187084344754 L-32.621232642390126 21.298668716801554 L-32.655119772324475 21.295561785065523 L-32.70323172559131 21.30351104621673 L-33.029311654839475 21.39969051097668 L-33.272093803812325 21.465180018076104 L-33.53397224798723 21.529971163123342 L-33.81271290452717 21.592763610055158 L-34.10780071484944 21.65278023941074 L-34.4215601239034 21.709782187887186 L-34.74784733600128 21.762054108258187 A41 41 0 0 1 -35.16532476714301 21.080792857911344 L-34.97061885058166 20.813799778424478 L-34.77738595168331 20.560116441006862 L-34.589943680892425 20.324438256355084 L-34.40744959104613 20.104585687183896 L-34.23082993235743 19.90066484919845 L-34.06225756512593 19.714075984562932 L-33.82852384449746 19.467201203466985 L-33.799598631242205 19.427942028257384 L-33.78698249263559 19.396337856908364 L-33.786692732276634 19.383613921238364 L-33.79034874879917 19.37305388131481 L-33.833038152876306 19.298668382865593 L-33.98371947548545 19.0317973563064 L-34.132533656639445 18.76388068029039 L-34.173652567903865 18.688615663606484 L-34.18074621869427 18.679980791374433 L-34.19174655666683 18.6735796145694 L-34.22528545683436 18.667823506895566 L-34.27387278884745 18.671973442780555 L-34.606493676330075 18.74227248196511 L-34.85366565646877 18.788511638902897 L-35.11982027144937 18.832556308552324 L-35.402628302174996 18.873285447471464 L-35.701515305726495 18.909964742830084 L-36.01877982056644 18.94217369381234 L-36.34816240568653 18.968684277688947 A41 41 0 0 1 -36.71090175157748 18.256768226683317 L-36.49584801279493 18.005874647902335 L-36.283307021180654 17.768134210063884 L-36.07795147510438 17.547889093669188 L-35.87877051986213 17.34303257786169 L-35.68669587608893 17.153597778473088 L-35.50400356761524 16.980810140534043 L-35.251620797959994 16.75303492835954 L-35.219704512097934 16.716166222160762 L-35.204647630130935 16.685649326751307 L-35.203360454519704 16.672987349064314 L-35.206176669580174 16.66217301446929 L-35.24289825752782 16.58466744964583 L-35.37217662048692 16.306796777082827 L-35.499511557054014 16.028030172681486 L-35.53459848728879 15.949771020330466 L-35.54099278645413 15.94060620510134 L-35.551456983512196 15.933361684418085 L-35.584440875440535 15.924991889124353 L-35.633204029141105 15.925316914008407 L-35.97031515647919 15.969302110664191 L-36.22035307033315 15.996005837661732 L-36.489142924412704 16.01903248187863 L-36.77427472377138 16.037447204099838 L-37.0751181827852 16.050563025408508 L-37.393931762175974 16.0577804000032 L-37.7243789671502 16.058366200820156 A41 41 0 0 1 -38.03014381909986 15.32018454834629 L-37.79606813590835 15.086937312614964 L-37.565529437468506 14.86660552321166 L-37.343526701336025 14.663151359455563 L-37.1288868975213 14.474553905553408 L-36.92254147271377 14.300773073293346 L-36.72685558183098 14.142851955296388 L-36.45737978684965 13.93558062196932 L-36.42266920289637 13.901329692615178 L-36.40526440825325 13.87208821995338 L-36.40298775325541 13.859566265552377 L-36.40494680395149 13.848564310254787 L-36.435474174968775 13.768416526637443 L-36.542552534180764 13.481259373168355 L-36.64762316393386 13.193361529197114 L-36.6764617905465 13.112590734877035 L-36.68211731510612 13.102952480784332 L-36.691980855995105 13.094909281101913 L-36.72420638302228 13.083977400759512 L-36.77284471735236 13.080475510756132 L-37.11236768234503 13.097875681519207 L-37.36372996302931 13.104879341219675 L-37.63349787737572 13.1067459930853 L-37.919195513008454 13.10273276572257 L-38.220140627519164 13.092204249581467 L-38.53853767972756 13.074385550274204 L-38.86801218765241 13.04904295637467 A41 41 0 0 1 -39.114917403671384 12.289146837790383 L-38.86326293049584 12.07498399187957 L-38.6161478729682 11.873419269660847 L-38.378866667471186 11.688010421118275 L-38.15009134084947 11.516834795139786 L-37.93074732316836 11.359779346627139 L-37.72327431846592 11.217698384778819 L-37.43836690604437 11.032208826993868 L-37.401076026292394 11.000786842853412 L-37.3814306253198 10.973001076342008 L-37.37817852727047 10.96069634723985 L-37.379268335403175 10.949574601952625 L-37.4034132780964 10.86727873727924 L-37.48763145986956 10.572605522244645 L-37.5697899874367 10.277351424647339 L-37.59220251070433 10.194566967164198 L-37.59708439246865 10.18451469724944 L-37.60628646517903 10.175722407568536 L-37.63755494621484 10.162295840854995 L-37.6857685896694 10.154988626280554 L-38.02561012033464 10.145696493312018 L-38.27674703580237 10.132956905824404 L-38.54582980151676 10.113652056809286 L-38.830331852495775 10.08723562274384 L-39.129523195798015 10.053127680956063 L-39.445540697119405 10.010382765953395 L-39.77201118809212 9.959268022856026 A41 41 0 0 1 -39.958534515419345 9.182342450423489 L-39.690852785770495 8.988584379494602 L-39.42868491565882 8.807029438000006 L-39.17758815833316 8.640809011876927 L-38.93608778486859 8.488110568477936 L-38.7050975031222 8.348748802779019 L-38.48711652466588 8.223383973455844 L-38.188534043743026 8.060819796018286 L-38.148892778866475 8.032420484072617 L-38.12712789199418 8.006261732201857 L-38.12292040115926 7.994250091145194 L-38.12313424769905 7.983077125126386 L-38.14074790046751 7.899140560768819 L-38.201586671705826 7.598768042528199 L-38.26032656244407 7.297978030998463 L-38.27617480170782 7.213690304061267 L-38.28025294225239 7.203285993911205 L-38.2887368129459 7.193798821621429 L-38.31885546740693 7.177960347785323 L-38.3663471668414 7.166892860047566 L-38.704412027133884 7.130965712437117 L-38.95377523478971 7.098561421554629 L-39.220513867142344 7.058204092472457 L-39.50206628371682 7.009547317804666 L-39.797659241687924 6.952070237173377 L-40.109348839140175 6.884662643090417 L-40.430802514021465 6.808090890183791 A41 41 0 0 1 -40.55579397431865 6.018925868411019 L-40.273735335073 5.846767155402433 L-39.998131004476186 5.686341341219422 L-39.73476679032894 5.540334141716784 L-39.48203030013096 5.407054317578228 L-39.2408178862183 5.2862454463210655 L-39.01367285922632 5.178369665383852 L-38.70325617008579 5.039733130505668 L-38.661508921664705 5.014531581956657 L-38.637758736657815 4.990161122130492 L-38.63262179361745 4.978516624880714 L-38.631958360129296 4.967361323181218 L-38.64293212894653 4.882301555970474 L-38.68001639839438 4.578081630982779 L-38.714975501344334 4.273610175964522 L-38.72416174693907 4.188338841438356 L-38.727411003171305 4.177646637084844 L-38.73512436596394 4.167523073758169 L-38.76390750232997 4.149370342257525 L-38.810384455624764 4.134610816098669 L-39.14458836326281 4.072270156658315 L-39.390640456009855 4.020400945609761 L-39.65339042263268 3.959239952814502 L-39.93025734052876 3.888642822740211 L-40.220429484288196 3.8081509685805703 L-40.5258695078557 3.716496285650142 L-40.84032449784573 3.614939613253618 A41 41 0 0 1 -40.90301347719626 2.8184006069238414 L-40.608316913658776 2.668902667549834 L-40.32097531492269 2.5305950591698463 L-40.04696737191156 2.4057012692249016 L-39.784552969485645 2.292661778782636 L-39.53460557814977 2.1911506288315548 L-39.29969692724692 2.1014289863421154 L-38.97935985200129 1.9875748343621533 L-38.935764005704556 1.965726425136972 L-38.91017495035139 1.9432945093442306 L-38.90414022606763 1.9320889480990713 L-38.90260360283959 1.921020086863378 L-38.9068698307717 1.8353615385495567 L-38.91997096157616 1.5291698238157245 L-38.930933742243056 1.2228940930761678 L-38.93340135790994 1.1371648770939806 L-38.93580169708469 1.1262506995323778 L-38.94269699652989 1.1155531603031408 L-38.96996715719385 1.0951980887640542 L-39.01514281847674 1.0768375215709087 L-39.34342529523568 0.9884677011964733 L-39.58464928010154 0.91745336091623 L-39.84179064007711 0.835865782266561 L-40.11226508267836 0.7437635515686066 L-40.39522740446782 0.640753182927767 L-40.69253471483618 0.52541649274841 L-40.99805230035475 0.3995010315183327 A41 41 0 0 1 -40.99805230035475 -0.39950103151832783 L-40.69253471483618 -0.5254164927484051 L-40.39522740446782 -0.6407531829277621 L-40.11226508267836 -0.7437635515686017 L-39.84179064007711 -0.8358657822665564 L-39.58464928010154 -0.9174533609162253 L-39.34342529523568 -0.9884677011964687 L-39.01514281847674 -1.076837521570904 L-38.96996715719385 -1.0951980887640496 L-38.94269699652989 -1.1155531603031363 L-38.93580169708469 -1.1262506995323733 L-38.93340135790994 -1.137164877093976 L-38.930933742243056 -1.2228940930761634 L-38.91997096157616 -1.52916982381572 L-38.9068698307717 -1.8353615385495519 L-38.90260360283959 -1.9210200868633733 L-38.90414022606763 -1.9320889480990668 L-38.91017495035139 -1.9432945093442262 L-38.935764005704556 -1.9657264251369673 L-38.97935985200129 -1.9875748343621487 L-39.29969692724692 -2.1014289863421105 L-39.53460557814977 -2.19115062883155 L-39.784552969485645 -2.292661778782631 L-40.04696737191156 -2.4057012692248967 L-40.32097531492269 -2.5305950591698414 L-40.608316913658776 -2.6689026675498293 L-40.90301347719626 -2.8184006069238365 A41 41 0 0 1 -40.84032449784573 -3.6149396132536125 L-40.5258695078557 -3.7164962856501367 L-40.220429484288196 -3.808150968580566 L-39.93025734052876 -3.8886428227402057 L-39.65339042263268 -3.959239952814497 L-39.390640456009855 -4.020400945609756 L-39.14458836326281 -4.07227015665831 L-38.810384455624764 -4.134610816098664 L-38.76390750232997 -4.149370342257519 L-38.73512436596394 -4.167523073758165 L-38.727411003171305 -4.177646637084838 L-38.72416174693907 -4.188338841438351 L-38.714975501344334 -4.273610175964517 L-38.68001639839438 -4.578081630982774 L-38.64293212894653 -4.88230155597047 L-38.631958360129296 -4.967361323181213 L-38.63262179361745 -4.978516624880709 L-38.637758736657815 -4.990161122130488 L-38.661508921664705 -5.014531581956652 L-38.70325617008579 -5.039733130505662 L-39.01367285922632 -5.178369665383847 L-39.2408178862183 -5.286245446321061 L-39.48203030013096 -5.407054317578223 L-39.73476679032894 -5.540334141716778 L-39.998131004476186 -5.686341341219418 L-40.273735335073 -5.846767155402428 L-40.55579397431865 -6.018925868411014 A41 41 0 0 1 -40.430802514021465 -6.808090890183784 L-40.109348839140175 -6.884662643090411 L-39.797659241687924 -6.952070237173371 L-39.50206628371682 -7.00954731780466 L-39.220513867142344 -7.058204092472452 L-38.95377523478971 -7.098561421554623 L-38.704412027133884 -7.130965712437112 L-38.3663471668414 -7.166892860047561 L-38.31885546740693 -7.177960347785317 L-38.2887368129459 -7.1937988216214235 L-38.28025294225239 -7.2032859939112 L-38.27617480170782 -7.213690304061262 L-38.26032656244407 -7.297978030998458 L-38.201586671705826 -7.598768042528194 L-38.14074790046751 -7.899140560768814 L-38.12313424769905 -7.983077125126381 L-38.12292040115926 -7.994250091145188 L-38.12712789199418 -8.006261732201851 L-38.148892778866475 -8.032420484072611 L-38.188534043743026 -8.060819796018281 L-38.48711652466588 -8.223383973455839 L-38.7050975031222 -8.348748802779014 L-38.93608778486859 -8.48811056847793 L-39.17758815833316 -8.640809011876922 L-39.42868491565882 -8.807029438 L-39.690852785770495 -8.988584379494597 L-39.958534515419345 -9.182342450423484 A41 41 0 0 1 -39.77201118809212 -9.959268022856023 L-39.445540697119405 -10.010382765953388 L-39.129523195798015 -10.053127680956058 L-38.830331852495775 -10.087235622743837 L-38.54582980151676 -10.113652056809283 L-38.27674703580237 -10.1329569058244 L-38.02561012033464 -10.145696493312013 L-37.6857685896694 -10.154988626280549 L-37.63755494621484 -10.16229584085499 L-37.60628646517903 -10.175722407568532 L-37.59708439246865 -10.184514697249437 L-37.59220251070433 -10.194566967164194 L-37.5697899874367 -10.277351424647334 L-37.48763145986956 -10.572605522244642 L-37.4034132780964 -10.867278737279234 L-37.379268335403175 -10.949574601952621 L-37.37817852727047 -10.960696347239846 L-37.3814306253198 -10.973001076342005 L-37.401076026292394 -11.000786842853406 L-37.43836690604437 -11.032208826993863 L-37.72327431846592 -11.217698384778814 L-37.93074732316836 -11.359779346627136 L-38.15009134084947 -11.516834795139783 L-38.378866667471186 -11.688010421118271 L-38.6161478729682 -11.873419269660841 L-38.86326293049584 -12.074983991879567 L-39.114917403671384 -12.28914683779038 A41 41 0 0 1 -38.86801218765241 -13.049042956374667 L-38.53853767972756 -13.0743855502742 L-38.220140627519164 -13.092204249581464 L-37.919195513008454 -13.102732765722566 L-37.63349787737572 -13.106745993085294 L-37.36372996302931 -13.104879341219672 L-37.11236768234503 -13.097875681519202 L-36.77284471735236 -13.080475510756129 L-36.72420638302228 -13.083977400759505 L-36.691980855995105 -13.094909281101907 L-36.68211731510612 -13.102952480784326 L-36.6764617905465 -13.112590734877031 L-36.64762316393386 -13.19336152919711 L-36.542552534180764 -13.48125937316835 L-36.435474174968775 -13.76841652663744 L-36.40494680395149 -13.848564310254783 L-36.40298775325541 -13.859566265552372 L-36.40526440825325 -13.872088219953374 L-36.42266920289637 -13.901329692615175 L-36.45737978684965 -13.935580621969317 L-36.72685558183098 -14.142851955296383 L-36.92254147271377 -14.300773073293342 L-37.1288868975213 -14.474553905553403 L-37.343526701336025 -14.66315135945556 L-37.565529437468506 -14.866605523211657 L-37.79606813590835 -15.08693731261496 L-38.03014381909986 -15.320184548346287 A41 41 0 0 1 -37.72437896715021 -16.058366200820142 L-37.39393176217598 -16.057780400003185 L-37.075118182785204 -16.050563025408493 L-36.774274723771384 -16.037447204099823 L-36.489142924412704 -16.019032481878615 L-36.220353070333154 -15.996005837661722 L-35.97031515647919 -15.96930211066418 L-35.63320402914111 -15.925316914008393 L-35.58444087544054 -15.924991889124337 L-35.5514569835122 -15.93336168441807 L-35.54099278645414 -15.940606205101325 L-35.5345984872888 -15.949771020330456 L-35.49951155705403 -16.028030172681476 L-35.372176620486925 -16.306796777082813 L-35.242898257527834 -16.58466744964582 L-35.20617666958018 -16.66217301446928 L-35.20336045451971 -16.6729873490643 L-35.20464763013094 -16.685649326751292 L-35.21970451209794 -16.716166222160748 L-35.25162079796 -16.753034928359526 L-35.50400356761526 -16.980810140534032 L-35.68669587608894 -17.153597778473078 L-35.878770519862144 -17.343032577861674 L-36.077951475104385 -17.547889093669173 L-36.28330702118066 -17.76813421006387 L-36.49584801279494 -18.00587464790232 L-36.71090175157749 -18.256768226683302 A41 41 0 0 1 -36.34816240568653 -18.968684277688954 L-36.01877982056644 -18.942173693812343 L-35.701515305726495 -18.909964742830088 L-35.402628302174996 -18.873285447471467 L-35.11982027144937 -18.832556308552327 L-34.85366565646877 -18.7885116389029 L-34.606493676330075 -18.742272481965117 L-34.27387278884745 -18.671973442780562 L-34.22528545683436 -18.66782350689557 L-34.19174655666683 -18.673579614569405 L-34.18074621869427 -18.679980791374437 L-34.173652567903865 -18.68861566360649 L-34.132533656639445 -18.763880680290395 L-33.98371947548545 -19.031797356306402 L-33.833038152876306 -19.298668382865596 L-33.79034874879917 -19.373053881314817 L-33.786692732276634 -19.383613921238368 L-33.78698249263559 -19.396337856908367 L-33.799598631242205 -19.427942028257387 L-33.82852384449746 -19.467201203466992 L-34.06225756512593 -19.71407598456294 L-34.23082993235743 -19.900664849198453 L-34.40744959104613 -20.1045856871839 L-34.589943680892425 -20.324438256355087 L-34.77738595168331 -20.560116441006866 L-34.97061885058166 -20.81379977842448 L-35.16532476714301 -21.08079285791135 A41 41 0 0 1 -34.747847336001286 -21.762054108258173 L-34.421560123903404 -21.70978218788717 L-34.107800714849446 -21.652780239410728 L-33.812712904527174 -21.592763610055147 L-33.533972247987236 -21.529971163123324 L-33.27209380381233 -21.46518001807609 L-33.02931165483949 -21.39969051097666 L-32.703231725591316 -21.30351104621672 L-32.65511977232448 -21.295561785065512 L-32.62123264239014 -21.298668716801544 L-32.609763984244644 -21.30418708434474 L-32.60201471654519 -21.312238776721024 L-32.5551173360125 -21.384045623881804 L-32.38574139918415 -21.639460576113496 L-32.214586117385466 -21.893686608046522 L-32.166192091550634 -21.964493428787875 L-32.16171881412365 -21.974734067882252 L-32.161009372761356 -21.98744151424073 L-32.171106985317806 -22.019938111303492 L-32.196862792407934 -22.06134570965375 L-32.410506417897594 -22.325797994551486 L-32.563919539186905 -22.5250377034859 L-32.7239952938633 -22.742187340291455 L-32.88867738156431 -22.975680498628986 L-33.05705073313948 -23.225338717158532 L-33.229784194243734 -23.493400912021855 L-33.40294186186202 -23.774847391095367 A41 41 0 0 1 -32.93330023265779 -24.42125363863268 L-32.61212006274622 -24.343542655538553 L-32.303800190570655 -24.26209914553535 L-32.014330887954905 -24.179115204660334 L-31.741376134438898 -24.09464658603178 L-31.48538842876145 -24.009508424541195 L-31.248492943636123 -23.925172331868865 L-30.930964363818806 -23.80370541991669 L-30.88362441548897 -23.792005843337662 L-30.84959798121245 -23.79244444386858 L-30.837731710985217 -23.797045979578996 L-30.829374603188977 -23.804464850738544 L-30.776987891333953 -23.872370815285255 L-30.588094457805013 -24.11370932561804 L-30.397520446043984 -24.353722974899295 L-30.34372016371338 -24.42051457033725 L-30.33845720462481 -24.430372671657082 L-30.336752935483172 -24.442985283071568 L-30.344269766850243 -24.47617395352097 L-30.366697374659854 -24.519474683398634 L-30.55893372101584 -24.799874035822455 L-30.696241753455194 -25.01053620999626 L-30.838786683861105 -25.239575845901435 L-30.9846414495838 -25.485270030439807 L-31.13290780424097 -25.7473690569101 L-31.284076868323726 -26.028157416648074 L-31.4346187123973 -26.322322084174292 A41 41 0 0 1 -30.91570838194636 -26.92988801943409 L-30.601615436771855 -26.827217087669133 L-30.3006359960134 -26.72183414246105 L-30.018569875613103 -26.616394513657063 L-29.753083881943123 -26.510770500454278 L-29.50456516409318 -26.40581022759725 L-29.275016882256914 -26.303147509407935 L-28.96799732115399 -26.15714203416756 L-28.921721244284733 -26.141764273940833 L-28.8877652899483 -26.139531839148507 L-28.87557456714121 -26.143188173028324 L-28.86666114359676 -26.149928483163418 L-28.809108081918342 -26.213514902243595 L-28.60186174251996 -26.439289038508075 L-28.393043952951384 -26.663610541177107 L-28.33416911075599 -26.725975118915333 L-28.328148917898712 -26.735389903987826 L-28.32546032836372 -26.74782991951484 L-28.330350034776437 -26.7815060441612 L-28.34931116964545 -26.826432942167624 L-28.518955035867414 -27.12105060686759 L-28.63931142977725 -27.341836443924727 L-28.763446699015734 -27.581353973410756 L-28.889574899627803 -27.837734397800688 L-29.01682014598695 -28.110658304556765 L-29.14549280549932 -28.40244167556 L-29.27249068549922 -28.70751090854394 A41 41 0 0 1 -28.70751090854397 -29.27249068549919 L-28.40244167556003 -29.145492805499288 L-28.11065830455679 -29.01682014598692 L-27.837734397800713 -28.88957489962777 L-27.58135397341078 -28.763446699015702 L-27.341836443924755 -28.639311429777223 L-27.121050606867623 -28.518955035867382 L-26.826432942167653 -28.349311169645414 L-26.781506044161233 -28.3303500347764 L-26.74782991951487 -28.325460328363693 L-26.73538990398786 -28.328148917898684 L-26.725975118915365 -28.33416911075596 L-26.66361054117714 -28.393043952951352 L-26.439289038508107 -28.601861742519933 L-26.213514902243627 -28.80910808191831 L-26.14992848316345 -28.86666114359673 L-26.143188173028356 -28.875574567141182 L-26.13953183914854 -28.887765289948273 L-26.141764273940865 -28.921721244284704 L-26.157142034167595 -28.967997321153963 L-26.303147509407967 -29.27501688225688 L-26.40581022759728 -29.50456516409315 L-26.51077050045431 -29.75308388194309 L-26.616394513657095 -30.01856987561307 L-26.72183414246108 -30.300635996013376 L-26.827217087669165 -30.601615436771823 L-26.92988801943412 -30.915708381946327 A41 41 0 0 1 -26.322322084174296 -31.43461871239729 L-26.02815741664808 -31.284076868323723 L-25.747369056910102 -31.132907804240965 L-25.485270030439814 -30.984641449583798 L-25.239575845901438 -30.838786683861102 L-25.010536209996264 -30.69624175345519 L-24.79987403582246 -30.558933721015837 L-24.519474683398638 -30.36669737465985 L-24.476173953520973 -30.344269766850235 L-24.44298528307157 -30.33675293548317 L-24.430372671657086 -30.338457204624806 L-24.420514570337257 -30.343720163713375 L-24.3537229748993 -30.397520446043977 L-24.113709325618043 -30.58809445780501 L-23.872370815285258 -30.776987891333945 L-23.80446485073855 -30.82937460318897 L-23.797045979579 -30.837731710985214 L-23.792444443868582 -30.849597981212447 L-23.792005843337666 -30.883624415488963 L-23.803705419916692 -30.930964363818802 L-23.92517233186887 -31.24849294363612 L-24.0095084245412 -31.485388428761446 L-24.094646586031782 -31.741376134438894 L-24.17911520466034 -32.0143308879549 L-24.262099145535352 -32.303800190570655 L-24.34354265553856 -32.61212006274622 L-24.421253638632685 -32.933300232657786 A41 41 0 0 1 -23.774847391095374 -33.40294186186201 L-23.493400912021862 -33.22978419424373 L-23.22533871715854 -33.05705073313947 L-22.975680498628993 -32.88867738156431 L-22.74218734029146 -32.7239952938633 L-22.525037703485907 -32.563919539186905 L-22.325797994551493 -32.41050641789759 L-22.061345709653757 -32.196862792407934 L-22.0199381113035 -32.171106985317806 L-21.987441514240736 -32.16100937276135 L-21.974734067882263 -32.161718814123645 L-21.964493428787883 -32.16619209155063 L-21.893686608046533 -32.21458611738546 L-21.639460576113507 -32.38574139918414 L-21.384045623881814 -32.55511733601249 L-21.31223877672103 -32.602014716545185 L-21.30418708434475 -32.60976398424464 L-21.29866871680155 -32.62123264239013 L-21.29556178506552 -32.65511977232448 L-21.303511046216727 -32.703231725591316 L-21.399690510976676 -33.02931165483948 L-21.465180018076097 -33.27209380381233 L-21.529971163123335 -33.533972247987236 L-21.592763610055155 -33.812712904527174 L-21.652780239410735 -34.10780071484944 L-21.70978218788718 -34.4215601239034 L-21.76205410825818 -34.74784733600128 A41 41 0 0 1 -21.080792857911355 -35.16532476714301 L-20.81379977842449 -34.97061885058165 L-20.560116441006873 -34.7773859516833 L-20.324438256355094 -34.58994368089242 L-20.104585687183906 -34.407449591046124 L-19.90066484919846 -34.23082993235742 L-19.714075984562946 -34.062257565125925 L-19.467201203466995 -33.82852384449746 L-19.427942028257394 -33.799598631242205 L-19.396337856908374 -33.78698249263559 L-19.383613921238375 -33.78669273227663 L-19.37305388131482 -33.79034874879916 L-19.298668382865603 -33.8330381528763 L-19.03179735630641 -33.983719475485444 L-18.763880680290402 -34.13253365663944 L-18.688615663606495 -34.17365256790386 L-18.679980791374444 -34.18074621869426 L-18.673579614569412 -34.19174655666683 L-18.667823506895576 -34.22528545683436 L-18.671973442780565 -34.27387278884745 L-18.742272481965124 -34.60649367633007 L-18.788511638902907 -34.85366565646876 L-18.832556308552334 -35.11982027144936 L-18.873285447471474 -35.40262830217499 L-18.909964742830095 -35.70151530572649 L-18.94217369381235 -36.01877982056643 L-18.968684277688958 -36.34816240568653 A41 41 0 0 1 -18.256768226683345 -36.71090175157747 L-18.005874647902363 -36.49584801279492 L-17.76813421006391 -36.28330702118065 L-17.547889093669216 -36.07795147510436 L-17.343032577861713 -35.87877051986212 L-17.153597778473117 -35.686695876088926 L-16.98081014053407 -35.504003567615236 L-16.753034928359565 -35.25162079795999 L-16.716166222160787 -35.21970451209793 L-16.68564932675133 -35.20464763013093 L-16.67298734906434 -35.2033604545197 L-16.662173014469314 -35.20617666958017 L-16.58466744964586 -35.24289825752781 L-16.30679677708285 -35.37217662048691 L-16.028030172681515 -35.49951155705401 L-15.949771020330491 -35.53459848728878 L-15.940606205101364 -35.540992786454126 L-15.93336168441811 -35.55145698351219 L-15.924991889124378 -35.58444087544053 L-15.925316914008432 -35.6332040291411 L-15.96930211066422 -35.97031515647918 L-15.99600583766176 -36.22035307033314 L-16.019032481878654 -36.4891429244127 L-16.037447204099866 -36.77427472377136 L-16.050563025408533 -37.07511818278519 L-16.057780400003228 -37.39393176217597 L-16.058366200820185 -37.7243789671502 A41 41 0 0 1 -15.320184548346303 -38.03014381909986 L-15.086937312614975 -37.79606813590835 L-14.866605523211673 -37.5655294374685 L-14.663151359455576 -37.34352670133602 L-14.47455390555342 -37.1288868975213 L-14.300773073293357 -36.92254147271376 L-14.142851955296399 -36.726855581830975 L-13.935580621969333 -36.45737978684964 L-13.901329692615189 -36.42266920289637 L-13.87208821995339 -36.405264408253245 L-13.859566265552388 -36.4029877532554 L-13.848564310254798 -36.40494680395148 L-13.768416526637452 -36.435474174968775 L-13.481259373168365 -36.54255253418076 L-13.193361529197126 -36.64762316393386 L-13.112590734877045 -36.67646179054649 L-13.102952480784342 -36.68211731510611 L-13.094909281101923 -36.6919808559951 L-13.083977400759522 -36.72420638302228 L-13.080475510756145 -36.772844717352356 L-13.097875681519218 -37.112367682345024 L-13.104879341219686 -37.3637299630293 L-13.10674599308531 -37.63349787737572 L-13.102732765722582 -37.91919551300845 L-13.09220424958148 -38.22014062751916 L-13.074385550274219 -38.53853767972756 L-13.049042956374683 -38.86801218765241 A41 41 0 0 1 -12.289146837790378 -39.114917403671384 L-12.074983991879563 -38.86326293049584 L-11.87341926966084 -38.6161478729682 L-11.68801042111827 -38.378866667471186 L-11.51683479513978 -38.15009134084947 L-11.359779346627134 -37.93074732316836 L-11.217698384778812 -37.72327431846592 L-11.03220882699386 -37.43836690604437 L-11.000786842853405 -37.401076026292394 L-10.973001076342003 -37.3814306253198 L-10.960696347239844 -37.37817852727047 L-10.949574601952618 -37.379268335403175 L-10.867278737279232 -37.4034132780964 L-10.57260552224464 -37.48763145986956 L-10.277351424647332 -37.5697899874367 L-10.19456696716419 -37.59220251070433 L-10.184514697249435 -37.59708439246865 L-10.17572240756853 -37.60628646517903 L-10.162295840854988 -37.63755494621484 L-10.154988626280547 -37.6857685896694 L-10.14569649331201 -38.02561012033464 L-10.132956905824399 -38.27674703580237 L-10.11365205680928 -38.54582980151676 L-10.087235622743835 -38.830331852495775 L-10.053127680956056 -39.129523195798015 L-10.010382765953388 -39.445540697119405 L-9.95926802285602 -39.77201118809212 A41 41 0 0 1 -9.182342450423501 -39.958534515419345 L-8.988584379494613 -39.690852785770495 L-8.807029438000017 -39.42868491565882 L-8.640809011876938 -39.17758815833316 L-8.488110568477946 -38.93608778486859 L-8.34874880277903 -38.7050975031222 L-8.223383973455855 -38.48711652466588 L-8.060819796018297 -38.188534043743026 L-8.032420484072627 -38.148892778866475 L-8.006261732201867 -38.12712789199418 L-7.994250091145204 -38.12292040115926 L-7.983077125126398 -38.12313424769905 L-7.89914056076883 -38.14074790046751 L-7.59876804252821 -38.201586671705826 L-7.297978030998474 -38.26032656244407 L-7.213690304061279 -38.27617480170782 L-7.203285993911216 -38.28025294225239 L-7.1937988216214395 -38.2887368129459 L-7.1779603477853335 -38.31885546740693 L-7.166892860047577 -38.3663471668414 L-7.130965712437128 -38.704412027133884 L-7.098561421554639 -38.95377523478971 L-7.058204092472468 -39.220513867142344 L-7.009547317804676 -39.50206628371682 L-6.952070237173388 -39.797659241687924 L-6.884662643090428 -40.109348839140175 L-6.808090890183802 -40.430802514021465 A41 41 0 0 1 -6.018925868411048 -40.55579397431864 L-5.846767155402462 -40.27373533507299 L-5.6863413412194515 -39.99813100447618 L-5.540334141716813 -39.73476679032893 L-5.407054317578257 -39.482030300130944 L-5.286245446321094 -39.240817886218295 L-5.1783696653838795 -39.01367285922631 L-5.039733130505695 -38.70325617008578 L-5.0145315819566845 -38.6615089216647 L-4.99016112213052 -38.637758736657815 L-4.978516624880742 -38.63262179361745 L-4.967361323181246 -38.63195836012929 L-4.8823015559705025 -38.64293212894653 L-4.5780816309828065 -38.68001639839438 L-4.27361017596455 -38.714975501344334 L-4.188338841438384 -38.72416174693906 L-4.177646637084871 -38.727411003171305 L-4.167523073758198 -38.73512436596394 L-4.149370342257552 -38.763907502329964 L-4.1346108160986965 -38.81038445562476 L-4.072270156658345 -39.144588363262805 L-4.020400945609789 -39.39064045600985 L-3.9592399528145306 -39.65339042263268 L-3.8886428227402403 -39.930257340528755 L-3.8081509685806 -40.22042948428819 L-3.7164962856501713 -40.525869507855695 L-3.6149396132536475 -40.84032449784572 A41 41 0 0 1 -2.818400606923853 -40.90301347719626 L-2.6689026675498457 -40.608316913658776 L-2.530595059169858 -40.32097531492269 L-2.405701269224913 -40.04696737191156 L-2.292661778782647 -39.784552969485645 L-2.191150628831566 -39.53460557814977 L-2.1014289863421265 -39.29969692724692 L-1.9875748343621644 -38.97935985200129 L-1.965726425136983 -38.93576400570455 L-1.9432945093442417 -38.91017495035139 L-1.9320889480990824 -38.90414022606763 L-1.921020086863389 -38.90260360283959 L-1.8353615385495679 -38.9068698307717 L-1.5291698238157356 -38.91997096157616 L-1.222894093076179 -38.930933742243056 L-1.1371648770939917 -38.93340135790994 L-1.1262506995323889 -38.93580169708469 L-1.1155531603031519 -38.94269699652989 L-1.0951980887640653 -38.96996715719386 L-1.0768375215709198 -39.01514281847674 L-0.9884677011964844 -39.34342529523568 L-0.9174533609162413 -39.58464928010154 L-0.8358657822665724 -39.84179064007711 L-0.743763551568618 -40.11226508267836 L-0.6407531829277785 -40.39522740446782 L-0.5254164927484215 -40.69253471483618 L-0.39950103151834426 -40.99805230035475 A41 41 0 0 1 0.3995010315183345 -40.99805230035475 L0.5254164927484115 -40.69253471483618 L0.6407531829277685 -40.39522740446782 L0.7437635515686082 -40.11226508267836 L0.8358657822665628 -39.84179064007711 L0.9174533609162318 -39.58464928010154 L0.9884677011964749 -39.34342529523568 L1.0768375215709103 -39.01514281847674 L1.0951980887640558 -38.96996715719385 L1.1155531603031426 -38.94269699652989 L1.1262506995323796 -38.93580169708469 L1.1371648770939822 -38.93340135790994 L1.2228940930761696 -38.930933742243056 L1.5291698238157263 -38.91997096157616 L1.835361538549558 -38.9068698307717 L1.9210200868633796 -38.90260360283959 L1.932088948099073 -38.90414022606763 L1.9432945093442324 -38.91017495035139 L1.9657264251369735 -38.935764005704556 L1.9875748343621549 -38.97935985200129 L2.1014289863421167 -39.29969692724692 L2.1911506288315565 -39.53460557814977 L2.2926617787826378 -39.784552969485645 L2.4057012692249033 -40.04696737191156 L2.5305950591698476 -40.32097531492269 L2.668902667549836 -40.608316913658776 L2.818400606923843 -40.90301347719626 A41 41 0 0 1 3.614939613253601 -40.84032449784573 L3.716496285650125 -40.5258695078557 L3.8081509685805544 -40.220429484288196 L3.888642822740195 -39.93025734052876 L3.959239952814486 -39.65339042263268 L4.020400945609745 -39.390640456009855 L4.072270156658299 -39.14458836326281 L4.134610816098653 -38.810384455624764 L4.149370342257509 -38.76390750232997 L4.167523073758154 -38.73512436596394 L4.177646637084828 -38.727411003171305 L4.18833884143834 -38.72416174693907 L4.273610175964507 -38.714975501344334 L4.578081630982763 -38.68001639839438 L4.882301555970459 -38.64293212894653 L4.967361323181202 -38.631958360129296 L4.978516624880698 -38.63262179361745 L4.990161122130477 -38.637758736657815 L5.014531581956641 -38.661508921664705 L5.039733130505652 -38.70325617008579 L5.178369665383836 -39.01367285922632 L5.2862454463210495 -39.2408178862183 L5.407054317578212 -39.48203030013096 L5.540334141716768 -39.73476679032894 L5.686341341219406 -39.998131004476186 L5.846767155402416 -40.273735335073 L6.018925868411003 -40.55579397431865 A41 41 0 0 1 6.808090890183756 -40.43080251402147 L6.8846626430903815 -40.10934883914018 L6.952070237173343 -39.79765924168793 L7.009547317804632 -39.50206628371683 L7.058204092472423 -39.22051386714236 L7.098561421554596 -38.95377523478972 L7.130965712437084 -38.7044120271339 L7.1668928600475335 -38.36634716684141 L7.17796034778529 -38.318855467406934 L7.193798821621397 -38.288736812945906 L7.203285993911172 -38.2802529422524 L7.2136903040612355 -38.276174801707825 L7.29797803099843 -38.26032656244408 L7.5987680425281665 -38.20158667170584 L7.899140560768786 -38.14074790046752 L7.983077125126354 -38.123134247699056 L7.994250091145161 -38.12292040115928 L8.006261732201825 -38.127127891994185 L8.032420484072585 -38.14889277886648 L8.060819796018254 -38.18853404374303 L8.22338397345581 -38.48711652466589 L8.348748802778985 -38.705097503122204 L8.488110568477902 -38.936087784868604 L8.640809011876893 -39.177588158333165 L8.807029437999972 -39.42868491565883 L8.988584379494569 -39.6908527857705 L9.182342450423455 -39.95853451541935 A41 41 0 0 1 9.95926802285601 -39.77201118809213 L10.010382765953377 -39.445540697119405 L10.053127680956047 -39.12952319579802 L10.087235622743826 -38.830331852495775 L10.113652056809268 -38.54582980151676 L10.13295690582439 -38.27674703580237 L10.145696493312002 -38.02561012033465 L10.154988626280538 -37.68576858966941 L10.162295840854979 -37.63755494621484 L10.175722407568522 -37.60628646517904 L10.184514697249426 -37.59708439246866 L10.194566967164183 -37.59220251070433 L10.277351424647323 -37.56978998743671 L10.572605522244631 -37.48763145986957 L10.867278737279223 -37.40341327809641 L10.94957460195261 -37.379268335403175 L10.960696347239836 -37.37817852727048 L10.973001076341994 -37.38143062531981 L11.000786842853396 -37.401076026292394 L11.032208826993852 -37.43836690604438 L11.217698384778803 -37.723274318465926 L11.359779346627125 -37.93074732316836 L11.516834795139772 -38.15009134084947 L11.68801042111826 -38.378866667471186 L11.87341926966083 -38.616147872968206 L12.074983991879556 -38.86326293049584 L12.289146837790367 -39.11491740367139 A41 41 0 0 1 13.049042956374674 -38.86801218765241 L13.074385550274208 -38.53853767972756 L13.09220424958147 -38.220140627519164 L13.102732765722573 -37.919195513008454 L13.106745993085301 -37.63349787737572 L13.104879341219677 -37.36372996302931 L13.09787568151921 -37.11236768234503 L13.080475510756136 -36.77284471735236 L13.083977400759512 -36.72420638302228 L13.094909281101915 -36.691980855995105 L13.102952480784333 -36.68211731510612 L13.112590734877038 -36.6764617905465 L13.193361529197118 -36.64762316393386 L13.481259373168356 -36.542552534180764 L13.768416526637447 -36.435474174968775 L13.84856431025479 -36.40494680395149 L13.85956626555238 -36.40298775325541 L13.872088219953381 -36.40526440825325 L13.901329692615182 -36.42266920289637 L13.935580621969324 -36.45737978684965 L14.14285195529639 -36.72685558183098 L14.300773073293348 -36.92254147271377 L14.47455390555341 -37.1288868975213 L14.663151359455567 -37.343526701336025 L14.866605523211664 -37.565529437468506 L15.086937312614964 -37.79606813590835 L15.320184548346294 -38.03014381909986 A41 41 0 0 1 16.058366200820142 -37.72437896715021 L16.057780400003185 -37.39393176217598 L16.05056302540849 -37.075118182785204 L16.037447204099823 -36.774274723771384 L16.019032481878615 -36.489142924412704 L15.996005837661718 -36.220353070333154 L15.969302110664177 -35.97031515647919 L15.92531691400839 -35.63320402914111 L15.924991889124337 -35.58444087544054 L15.933361684418067 -35.5514569835122 L15.940606205101325 -35.54099278645414 L15.949771020330452 -35.5345984872888 L16.028030172681472 -35.49951155705403 L16.306796777082813 -35.372176620486925 L16.584667449645817 -35.242898257527834 L16.662173014469275 -35.20617666958018 L16.6729873490643 -35.20336045451971 L16.68564932675129 -35.20464763013094 L16.716166222160748 -35.21970451209794 L16.753034928359522 -35.25162079796 L16.98081014053403 -35.50400356761526 L17.153597778473074 -35.68669587608894 L17.343032577861674 -35.878770519862144 L17.547889093669173 -36.077951475104385 L17.768134210063867 -36.28330702118066 L18.00587464790232 -36.49584801279494 L18.256768226683302 -36.71090175157749 A41 41 0 0 1 18.968684277688915 -36.34816240568655 L18.942173693812308 -36.01877982056645 L18.909964742830052 -35.70151530572651 L18.87328544747143 -35.40262830217501 L18.832556308552295 -35.119820271449385 L18.788511638902868 -34.853665656468785 L18.74227248196508 -34.60649367633009 L18.67197344278053 -34.27387278884747 L18.667823506895537 -34.22528545683438 L18.673579614569373 -34.19174655666685 L18.679980791374405 -34.18074621869428 L18.688615663606456 -34.17365256790388 L18.763880680290363 -34.13253365663946 L19.03179735630637 -33.983719475485465 L19.298668382865564 -33.83303815287632 L19.37305388131478 -33.79034874879918 L19.383613921238336 -33.78669273227665 L19.396337856908335 -33.78698249263561 L19.427942028257355 -33.799598631242226 L19.46720120346696 -33.82852384449748 L19.714075984562903 -34.06225756512595 L19.90066484919842 -34.230829932357445 L20.104585687183867 -34.407449591046145 L20.32443825635505 -34.58994368089244 L20.560116441006837 -34.77738595168332 L20.813799778424446 -34.97061885058167 L21.08079285791132 -35.165324767143034 A41 41 0 0 1 21.762054108258173 -34.747847336001286 L21.70978218788717 -34.421560123903404 L21.652780239410728 -34.107800714849446 L21.592763610055147 -33.812712904527174 L21.529971163123324 -33.533972247987236 L21.46518001807609 -33.27209380381233 L21.39969051097666 -33.02931165483949 L21.30351104621672 -32.703231725591316 L21.295561785065512 -32.65511977232448 L21.298668716801544 -32.62123264239014 L21.30418708434474 -32.609763984244644 L21.312238776721024 -32.60201471654519 L21.384045623881804 -32.5551173360125 L21.639460576113496 -32.38574139918415 L21.893686608046522 -32.214586117385466 L21.964493428787875 -32.166192091550634 L21.974734067882252 -32.16171881412365 L21.98744151424073 -32.161009372761356 L22.019938111303492 -32.171106985317806 L22.06134570965375 -32.196862792407934 L22.325797994551486 -32.410506417897594 L22.5250377034859 -32.563919539186905 L22.742187340291455 -32.7239952938633 L22.975680498628986 -32.88867738156431 L23.225338717158532 -33.05705073313948 L23.493400912021855 -33.229784194243734 L23.774847391095367 -33.40294186186202 A41 41 0 0 1 24.42125363863268 -32.93330023265779 L24.343542655538553 -32.61212006274622 L24.26209914553535 -32.303800190570655 L24.179115204660334 -32.014330887954905 L24.09464658603178 -31.741376134438898 L24.009508424541195 -31.48538842876145 L23.925172331868865 -31.248492943636123 L23.80370541991669 -30.930964363818806 L23.792005843337662 -30.88362441548897 L23.79244444386858 -30.84959798121245 L23.797045979578996 -30.837731710985217 L23.804464850738544 -30.829374603188977 L23.872370815285255 -30.776987891333953 L24.11370932561804 -30.588094457805013 L24.353722974899295 -30.397520446043984 L24.42051457033725 -30.34372016371338 L24.430372671657082 -30.33845720462481 L24.442985283071568 -30.336752935483172 L24.47617395352097 -30.344269766850243 L24.519474683398634 -30.366697374659854 L24.799874035822455 -30.55893372101584 L25.01053620999626 -30.696241753455194 L25.239575845901435 -30.838786683861105 L25.485270030439807 -30.9846414495838 L25.7473690569101 -31.13290780424097 L26.028157416648074 -31.284076868323726 L26.322322084174292 -31.4346187123973 A41 41 0 0 1 26.929888019434085 -30.91570838194636 L26.82721708766913 -30.601615436771855 L26.72183414246104 -30.3006359960134 L26.616394513657056 -30.018569875613103 L26.51077050045427 -29.753083881943123 L26.405810227597243 -29.50456516409318 L26.303147509407932 -29.275016882256914 L26.157142034167556 -28.96799732115399 L26.14176427394083 -28.921721244284733 L26.139531839148503 -28.8877652899483 L26.14318817302832 -28.87557456714121 L26.149928483163414 -28.86666114359676 L26.213514902243592 -28.809108081918342 L26.439289038508072 -28.60186174251996 L26.663610541177103 -28.393043952951384 L26.72597511891533 -28.33416911075599 L26.735389903987823 -28.328148917898712 L26.747829919514835 -28.32546032836372 L26.781506044161198 -28.330350034776437 L26.82643294216762 -28.34931116964545 L27.121050606867588 -28.518955035867414 L27.34183644392472 -28.63931142977725 L27.58135397341075 -28.763446699015734 L27.83773439780068 -28.889574899627803 L28.110658304556758 -29.01682014598695 L28.402441675559995 -29.14549280549932 L28.707510908543934 -29.27249068549922 A41 41 0 0 1 29.27249068549919 -28.70751090854397 L29.145492805499288 -28.40244167556003 L29.01682014598692 -28.11065830455679 L28.88957489962777 -27.837734397800713 L28.763446699015702 -27.58135397341078 L28.639311429777223 -27.341836443924755 L28.518955035867382 -27.121050606867623 L28.349311169645414 -26.826432942167653 L28.3303500347764 -26.781506044161233 L28.325460328363693 -26.74782991951487 L28.328148917898684 -26.73538990398786 L28.33416911075596 -26.725975118915365 L28.393043952951352 -26.66361054117714 L28.601861742519933 -26.439289038508107 L28.80910808191831 -26.213514902243627 L28.86666114359673 -26.14992848316345 L28.875574567141182 -26.143188173028356 L28.887765289948273 -26.13953183914854 L28.921721244284704 -26.141764273940865 L28.967997321153963 -26.157142034167595 L29.27501688225688 -26.303147509407967 L29.50456516409315 -26.40581022759728 L29.75308388194309 -26.51077050045431 L30.01856987561307 -26.616394513657095 L30.300635996013376 -26.72183414246108 L30.601615436771823 -26.827217087669165 L30.915708381946327 -26.92988801943412 A41 41 0 0 1 31.43461871239729 -26.322322084174303 L31.284076868323723 -26.028157416648085 L31.132907804240965 -25.74736905691011 L30.984641449583798 -25.485270030439818 L30.838786683861102 -25.23957584590144 L30.696241753455187 -25.01053620999627 L30.558933721015837 -24.799874035822462 L30.36669737465985 -24.51947468339864 L30.344269766850235 -24.47617395352098 L30.33675293548317 -24.44298528307158 L30.338457204624806 -24.43037267165709 L30.343720163713375 -24.42051457033726 L30.397520446043977 -24.353722974899302 L30.58809445780501 -24.113709325618046 L30.776987891333945 -23.87237081528526 L30.82937460318897 -23.804464850738555 L30.837731710985214 -23.797045979579003 L30.849597981212447 -23.79244444386859 L30.883624415488963 -23.792005843337673 L30.930964363818802 -23.803705419916696 L31.24849294363612 -23.925172331868872 L31.48538842876145 -24.009508424541206 L31.741376134438894 -24.094646586031786 L32.0143308879549 -24.179115204660345 L32.303800190570655 -24.26209914553536 L32.61212006274622 -24.343542655538563 L32.933300232657786 -24.42125363863269 A41 41 0 0 1 33.40294186186201 -23.774847391095374 L33.22978419424373 -23.493400912021862 L33.05705073313947 -23.22533871715854 L32.8886773815643 -22.975680498628993 L32.72399529386329 -22.74218734029146 L32.5639195391869 -22.525037703485907 L32.41050641789758 -22.325797994551493 L32.19686279240793 -22.061345709653757 L32.1711069853178 -22.0199381113035 L32.16100937276134 -21.987441514240736 L32.161718814123645 -21.974734067882263 L32.16619209155063 -21.964493428787883 L32.21458611738545 -21.893686608046533 L32.38574139918414 -21.639460576113507 L32.555117336012486 -21.384045623881814 L32.602014716545185 -21.31223877672103 L32.60976398424464 -21.30418708434475 L32.621232642390126 -21.29866871680155 L32.655119772324475 -21.29556178506552 L32.70323172559131 -21.303511046216727 L33.029311654839475 -21.399690510976676 L33.272093803812325 -21.465180018076097 L33.53397224798723 -21.529971163123335 L33.81271290452717 -21.592763610055155 L34.10780071484944 -21.652780239410735 L34.4215601239034 -21.70978218788718 L34.74784733600128 -21.76205410825818 A41 41 0 0 1 35.16532476714301 -21.08079285791136 L34.97061885058165 -20.81379977842449 L34.7773859516833 -20.560116441006876 L34.58994368089242 -20.324438256355094 L34.407449591046124 -20.10458568718391 L34.23082993235742 -19.90066484919846 L34.062257565125925 -19.714075984562946 L33.82852384449746 -19.467201203467 L33.799598631242205 -19.427942028257398 L33.78698249263559 -19.396337856908378 L33.78669273227663 -19.383613921238375 L33.79034874879916 -19.373053881314824 L33.8330381528763 -19.298668382865607 L33.983719475485444 -19.03179735630641 L34.13253365663944 -18.763880680290406 L34.17365256790386 -18.688615663606498 L34.18074621869426 -18.679980791374444 L34.19174655666683 -18.673579614569416 L34.22528545683436 -18.66782350689558 L34.27387278884745 -18.67197344278057 L34.60649367633007 -18.742272481965124 L34.85366565646876 -18.788511638902907 L35.11982027144936 -18.832556308552338 L35.40262830217499 -18.873285447471474 L35.70151530572649 -18.9099647428301 L36.01877982056643 -18.94217369381235 L36.34816240568653 -18.96868427768896 A41 41 0 0 1 36.71090175157746 -18.256768226683345 L36.495848012794916 -18.005874647902367 L36.28330702118064 -17.768134210063913 L36.07795147510436 -17.547889093669216 L35.878770519862115 -17.343032577861717 L35.68669587608892 -17.15359777847312 L35.50400356761523 -16.98081014053407 L35.25162079795998 -16.75303492835957 L35.21970451209792 -16.71616622216079 L35.20464763013092 -16.685649326751335 L35.20336045451969 -16.672987349064343 L35.20617666958016 -16.662173014469317 L35.24289825752781 -16.58466744964586 L35.372176620486904 -16.306796777082855 L35.49951155705401 -16.028030172681515 L35.534598487288775 -15.949771020330495 L35.54099278645412 -15.940606205101368 L35.55145698351218 -15.933361684418113 L35.58444087544052 -15.924991889124382 L35.63320402914109 -15.925316914008436 L35.970315156479174 -15.96930211066422 L36.22035307033313 -15.996005837661764 L36.48914292441269 -16.019032481878657 L36.77427472377136 -16.037447204099866 L37.07511818278518 -16.050563025408536 L37.39393176217596 -16.05778040000323 L37.724378967150194 -16.058366200820185 A41 41 0 0 1 38.03014381909986 -15.320184548346305 L37.79606813590835 -15.086937312614976 L37.5655294374685 -14.866605523211675 L37.34352670133602 -14.663151359455577 L37.1288868975213 -14.474553905553421 L36.92254147271376 -14.300773073293358 L36.726855581830975 -14.1428519552964 L36.45737978684964 -13.935580621969335 L36.422669202896365 -13.90132969261519 L36.405264408253245 -13.872088219953392 L36.4029877532554 -13.85956626555239 L36.40494680395148 -13.848564310254801 L36.435474174968775 -13.768416526637456 L36.54255253418076 -13.481259373168367 L36.64762316393386 -13.19336152919713 L36.67646179054649 -13.112590734877049 L36.68211731510611 -13.102952480784344 L36.6919808559951 -13.094909281101925 L36.724206383022285 -13.083977400759524 L36.772844717352356 -13.080475510756147 L37.112367682345024 -13.09787568151922 L37.3637299630293 -13.104879341219688 L37.63349787737572 -13.106745993085312 L37.91919551300845 -13.102732765722584 L38.22014062751916 -13.092204249581481 L38.53853767972756 -13.07438555027422 L38.86801218765241 -13.049042956374684 A41 41 0 0 1 39.114917403671384 -12.28914683779038 L38.86326293049584 -12.074983991879567 L38.6161478729682 -11.873419269660841 L38.378866667471186 -11.688010421118271 L38.15009134084947 -11.516834795139783 L37.93074732316836 -11.359779346627136 L37.72327431846592 -11.217698384778814 L37.43836690604437 -11.032208826993863 L37.401076026292394 -11.000786842853406 L37.3814306253198 -10.973001076342005 L37.37817852727047 -10.960696347239846 L37.379268335403175 -10.949574601952621 L37.4034132780964 -10.867278737279234 L37.48763145986956 -10.572605522244642 L37.5697899874367 -10.277351424647334 L37.59220251070433 -10.194566967164194 L37.59708439246865 -10.184514697249437 L37.60628646517903 -10.175722407568532 L37.63755494621484 -10.16229584085499 L37.6857685896694 -10.154988626280549 L38.02561012033464 -10.145696493312013 L38.27674703580237 -10.1329569058244 L38.54582980151676 -10.113652056809283 L38.830331852495775 -10.087235622743837 L39.129523195798015 -10.053127680956058 L39.445540697119405 -10.010382765953388 L39.77201118809212 -9.959268022856023 A41 41 0 0 1 39.95853451541934 -9.182342450423503 L39.69085278577049 -8.988584379494615 L39.42868491565881 -8.80702943800002 L39.17758815833315 -8.64080901187694 L38.93608778486859 -8.488110568477948 L38.7050975031222 -8.348748802779031 L38.48711652466588 -8.223383973455856 L38.18853404374302 -8.0608197960183 L38.14889277886647 -8.03242048407263 L38.12712789199417 -8.006261732201871 L38.12292040115926 -7.994250091145206 L38.12313424769904 -7.9830771251264 L38.1407479004675 -7.899140560768831 L38.201586671705826 -7.598768042528212 L38.260326562444064 -7.297978030998475 L38.27617480170781 -7.213690304061281 L38.28025294225239 -7.2032859939112175 L38.28873681294589 -7.193798821621442 L38.31885546740692 -7.177960347785335 L38.36634716684139 -7.16689286004758 L38.704412027133884 -7.130965712437131 L38.95377523478971 -7.098561421554642 L39.220513867142344 -7.0582040924724705 L39.502066283716815 -7.009547317804679 L39.79765924168792 -6.95207023717339 L40.10934883914017 -6.88466264309043 L40.43080251402146 -6.808090890183804 A41 41 0 0 1 40.55579397431864 -6.018925868411051 L40.27373533507299 -5.846767155402464 L39.99813100447618 -5.686341341219454 L39.73476679032893 -5.540334141716815 L39.482030300130944 -5.407054317578259 L39.240817886218295 -5.286245446321097 L39.01367285922631 -5.178369665383881 L38.70325617008578 -5.039733130505698 L38.6615089216647 -5.014531581956687 L38.637758736657815 -4.990161122130522 L38.63262179361745 -4.978516624880744 L38.63195836012929 -4.967361323181248 L38.64293212894653 -4.882301555970504 L38.68001639839438 -4.578081630982809 L38.714975501344334 -4.273610175964552 L38.72416174693906 -4.188338841438386 L38.727411003171305 -4.177646637084874 L38.73512436596394 -4.1675230737582 L38.763907502329964 -4.149370342257555 L38.81038445562476 -4.134610816098699 L39.144588363262805 -4.072270156658346 L39.39064045600985 -4.020400945609792 L39.65339042263268 -3.9592399528145332 L39.930257340528755 -3.888642822740242 L40.22042948428819 -3.8081509685806028 L40.525869507855695 -3.716496285650173 L40.84032449784572 -3.61493961325365 A41 41 0 0 1 40.90301347719626 -2.8184006069238365 Z" id="SvgjsPath2056">
        </path>
      </g>
    </g>
  </g>
</svg>
